<svg xmlns="http://www.w3.org/2000/svg" viewBox="0 0 1920 463"><path fill="#010101" d="M1746.398 98.7A195.075 195.075 0 0 1 1753 104l2.938 2.32c3.223 2.696 5.762 5.729 8.312 9.055l1.438 1.864c23.54 30.869 40.773 67.025 56.84 102.21 4.221 9.232 8.603 18.388 12.972 27.551 9.114 19.122 9.114 19.122 13.465 28.535l.913 1.975c1.377 2.982 2.749 5.966 4.114 8.953 1.314 2.857 2.653 5.7 4.008 8.537l1.007 2.212c1.615 3.253 2.689 4.645 6.016 6.206 1.66.38 1.66.38 3.352.77 7.935 2.103 12.867 4.94 17.625 11.812 3.175 8.078 2.378 15.389-.742 23.352-3.757 7.909-10.037 12.644-18.098 15.738-19.758 6.472-39.683 7.118-60.285 7.098l-3.098-.001c-60.99-.075-60.99-.075-75.652-13.437-6.18-6.808-7.827-13.542-7.508-22.66.744-6.003 2.89-9.562 7.07-13.84 3.891-2.935 9.347-6.25 14.313-6.25v-2c-14.779-2.562-29.549-2.227-44.5-2.125-2.577.01-5.154.02-7.73.027-6.257.022-12.514.055-18.77.098v4c.652.23 1.305.461 1.977.7 6.633 2.474 11.213 4.888 15.773 10.425 3.32 7.635 3.892 14.44 1.285 22.371-3.068 7.422-7.82 11.975-15.035 15.504-10.979 4.345-22.301 6.019-34 7 2.956.823 5.76 1.215 8.818 1.433l2.898.213 3.128.221 6.66.496c3.472.255 6.945.508 10.417.757 11.467.824 22.897 1.688 34.274 3.372l2.394.351c9.298 1.47 18.546 3.637 24.458 11.509 2.325 4.021 2.41 8.136 1.953 12.648-2.61 7.522-8.349 12.363-15.188 16.063-22.071 10.258-47.051 13.458-71 16.187l-2.208.252c-16.465 1.85-32.778 2.685-49.345 2.683-2.99.002-5.98.02-8.97.04-38.54.113-70.733-9.511-99.289-36.225l-1.954-1.82c-13.36-12.586-23.992-26.66-34.457-41.669-3.186-4.564-6.463-9.045-9.802-13.498-6.862-9.167-13.097-18.583-19.117-28.319a1909.878 1909.878 0 0 0-9.858-15.694l-1.942-3.11c-4.497-7.088-9.422-13.508-14.87-19.89.14 3.959.289 7.917.438 11.875l.119 3.36c.253 6.622.684 13.181 1.443 19.765l2 .625c7.774 3.563 13.024 8.808 17 16.375 2.28 6.88 1.996 14.748-1 21.313-5.534 9.657-13.602 13.61-23.977 16.523-31.14 7.507-80.963 11.062-110.023-5.836-7.985-6.079-13.887-11.963-16-22-.616-6.652.493-12.841 4.7-18.14 3.837-3.951 8.009-7.314 12.538-10.438 5.822-4.699 6.23-10.914 7.061-17.952.638-6.695.85-13.318.846-20.04l.01-3.331c.01-3.598.012-7.196.013-10.794l.01-7.556c.006-5.264.008-10.527.007-15.79 0-6.064.01-12.128.026-18.192.015-5.864.018-11.728.018-17.593 0-2.482.005-4.964.013-7.446.01-3.472.007-6.944 0-10.416.01-1.525.01-1.525.018-3.08.03-10.36.03-10.36-4.018-19.595-2.596-1.895-5.26-3.352-8.117-4.825-6.291-3.564-10.557-7.807-12.754-14.82-1.462-7.848-.38-15.465 4.07-22.16 7.951-9.832 20.36-14.204 32.684-15.582 5.056-.31 10.123-.345 15.188-.375l2.26-.015c4.65.014 9.238.263 13.872.636 8.708.655 17.39.7 26.118.692l2.58.002c11.021-.001 21.93-.307 32.92-1.19 36.994-2.957 71.29-1.725 100.796 23.043 11.682 10.68 20.227 26.015 21.28 42.069.902 22.072-4.51 42.759-19.139 59.888a130.166 130.166 0 0 1-9 8c4.049 8.833 8.227 17.557 12.813 26.125 3.73 6.972 7.199 14.032 10.562 21.188 12.363 26.13 26.93 54.844 50.625 72.687h2l-.656-1.617c-2.978-7.968-3.794-15.62-.305-23.574 4.308-8.108 10.865-10.663 19.031-14.102l3.118-1.394 2.855-1.2c8.524-6.091 12.602-16.95 16.957-26.175a8621.33 8621.33 0 0 1 1.96-4.102c6.196-13.005 12.177-26.108 18.077-39.25 2.077-4.624 4.17-9.242 6.271-13.855 17.773-37.513 17.773-37.513 24.982-77.973.51-15.005 2.043-28.237 13.26-39.266 20.914-17.926 50.025-19.962 72.848-3.793ZM1398 151c-1.17 4.799-1.343 9.587-1.563 14.5l-.128 2.757c-.422 9.914-.4 19.822-.309 29.743 1.43-.115 2.86-.242 4.29-.375.795-.07 1.591-.14 2.412-.21 3.914-.706 5.722-2.471 8.298-5.415 3.235-5.44 3.266-11.407 3.313-17.563.005-.708.01-1.416.017-2.145-.105-7.655-1.509-14.115-6.33-20.292-2.287-1.144-3.593-1.103-6.125-1.063L1398 151Zm306 58c-4.224 8.82-7.629 17.827-11 27h27c-6.702-13.957-6.702-13.957-15-27h-1ZM769 92l2.676.59c11.223 2.878 18.006 9.123 23.812 18.92a459.111 459.111 0 0 1 4.574 8.49l3.442 6.434 1.758 3.304c2.727 5.118 5.48 10.223 8.238 15.325l1.61 2.98c4.374 8.066 8.874 16.058 13.408 24.036A773.014 773.014 0 0 1 840 193c2.438-2.22 3.881-4.373 5.37-7.306l1.347-2.635 1.44-2.86 1.522-2.99c1.612-3.171 3.217-6.346 4.821-9.522l3.148-6.193c4.177-8.22 8.34-16.447 12.441-24.705l1.498-3.012c.928-1.87 1.853-3.74 2.775-5.612C881.276 114.233 889.707 100.518 905 95c24.932-7.76 55.657-8.17 80 2 9.209 4.933 14.328 11.092 17.375 21 1.376 6.68.19 13.409-2.668 19.555-2.324 3.328-5.212 5.739-8.27 8.382-5.63 4.949-8.568 8.393-9.437 16.063l-.265 2.012c-2.408 18.366-2.94 36.8-2.923 55.3v2.944c.02 22.777.954 45.508 3.188 68.181l.214 2.204c.615 5.455 1.193 9.003 5.466 12.64l3.195 2.219c7.69 5.366 11.427 10.28 13.125 19.5.457 7.683-2.598 14.942-7.5 20.79-6.936 6.502-15.955 9.28-25 11.46l-2.046.495c-11.453 2.564-23.083 2.441-34.757 2.44-2.664.002-5.327.02-7.99.04-47.02.156-47.02.156-62.32-13.635-5.407-6.2-7.133-12.722-6.739-20.832 1.15-9.016 6.767-14.749 13.602-20.133l2.016-1.46c4.424-5.522 4.102-13.931 4.359-20.728l.115-2.598c.324-7.948.36-15.886.26-23.839-6.232 12.765-12.326 25.567-18.063 38.563l-1.493 3.38-2.97 6.722c-2.41 5.453-4.835 10.9-7.287 16.335l-1.271 2.873c-9.555 21.072-9.555 21.072-20.229 25.502-5.902 1-10.585.717-15.937-2.063-5.492-4.618-8.98-10.021-12.375-16.25l-1.309-2.39C784.555 308.522 774.506 284.094 764 260v47l5 2c7.545 3.86 12.064 7.206 15.313 15.25 1.28 6.987.56 13.638-2.973 19.875-7.715 10.796-20.076 13.938-32.504 16.297-21.788 3.284-50.106 4.888-69.2-8.02-6.217-4.99-9.403-10.465-10.573-18.34-.41-6.493 1.071-11.717 5.125-16.812 4.426-3.54 8.929-6.483 14.187-8.625 2.934-1.436 2.934-1.436 3.74-4.813 1.432-6.167 1.866-12.39 2.385-18.687l.19-2.26c2.467-29.707 3.464-59.561 3.56-89.365l.016-2.498c.056-11.134-.635-21.983-2.266-33.002l-.424-2.907L695 153c-2.281-1.24-2.281-1.24-5-2-7.776-3.925-14.48-8.436-18.164-16.57-2.519-7.688-2.233-14.68 1.434-21.946 6.289-10.022 15.05-14.896 26.39-17.513l2.778-.596 2.944-.641C725.829 89.409 748.462 87.176 769 92ZM443.813 36.125c6.09 5.221 7.77 11.814 8.558 19.496.37 21.312-3.893 48.983-19.035 65.156C413.906 139.01 386.75 148.711 361 153l-3.832.652c-14.236 2.15-28.865 2.948-43.203 1.61-5.573-.368-11.132-.38-16.715-.387l-3.195-.013c-11.928-.347-11.928-.347-23.055 3.138-.418 3.332-.418 3.332 0 7 9.674 9.178 25.732 11.851 38.217 15.62C329.172 186.664 348.11 194.05 364 208l2.305 2.016c13.648 12.75 22.411 30.884 23.129 49.613.023 2.311.024 4.622.003 6.933l-.022 3.71c-.186 10.317-1.471 19.85-4.415 29.728l-.65 2.204C379.144 319.332 371.237 332.975 359 346l-1.534 1.662C338.634 367.955 315.761 372.885 289 374c-4.62.086-9.237.084-13.859.045-2.174-.018-4.348-.028-6.523-.036-6.17-.024-12.339-.06-18.508-.105-32.103-.276-32.103-.276-63.673 5.096l-3.56.91c-10.645 2.83-20.86 6.587-31.135 10.527C131.01 398.385 109.431 406.231 87 407l-3.277.121c-14.911.28-32.97-1.031-44.973-10.933-4.181-4.205-6.586-8.199-6.832-14.188 1.038-14.368 14.292-26.232 24.465-35.07a363.651 363.651 0 0 1 6.913-5.586 775.132 775.132 0 0 0 3.646-2.895c9.981-7.97 20.198-15.427 30.796-22.554 3.37-2.27 6.644-4.634 9.887-7.082 12.14-8.88 25.211-15.79 39.375-20.813l3.7-1.316c18.66-5.79 36.531-2.105 54.988 2.628 4.022 1.005 8.048 1.999 12.074 2.989l2.927.723c11.26 2.75 22.841 5.562 34.499 5.351l2.072.035c5.454-.031 9.26-1.591 13.615-4.785 1.555-2.246 1.341-3.96 1.125-6.625l-2.161-.855c-2.77-1.117-5.512-2.29-8.257-3.465-6.855-2.862-13.85-5.207-20.894-7.555-10.222-3.46-20.14-7.054-29.688-12.125l-1.78-.928c-24.645-12.943-43.8-33.128-52.407-59.744-5.808-19.625-3.551-40.303 6.187-58.328l1.336-2.504C176.774 119.541 196.103 105.78 220 99c6.862-1.874 13.787-3.455 20.724-5.022 4.049-.92 8.087-1.88 12.126-2.842 24.695-5.86 49.34-10.797 74.482-14.323 31.18-4.449 57.176-13.81 83.407-31.168 21.556-14.127 21.556-14.127 33.074-9.52Z"/><path fill="#010101" d="M1241.648 115.398c7.853 8.688 12.708 18.162 15.352 29.602l.574 2.316c2.84 17.903-1.043 35.306-10.574 50.684-2.277 2.85-4.631 5.5-7.18 8.11-1.883 1.767-1.883 1.767-2.82 3.89l1.95.926c18.402 9.32 30.544 23.809 38.152 42.828 5.793 18.6 2.326 39.97-6.29 57.059-13.905 23.963-34.072 38.513-60.588 45.59-12.046 2.994-23.968 3.907-36.349 3.784l-4.263-.019c-8.422-.052-16.823-.299-25.237-.668-14.226-.613-28.45-.614-42.688-.625l-3.474-.008c-13.73-.024-27.411.2-41.125.888-30.97 1.552-30.97 1.552-43.178-8.685-5.795-6.281-8.226-14.06-8.129-22.437.528-6.353 3.006-10.913 7.219-15.633 3.04-2.318 6.165-4.465 9.32-6.621 5.565-4.94 5.376-12.483 6.18-19.504l.386-3.308c1.443-12.823 2.4-25.684 3.114-38.567l.132-2.313c.918-16.6 1.056-33.188 1.053-49.809 0-3.69.014-7.38.031-11.07.011-2.882.013-5.765.013-8.648.001-2.015.012-4.031.023-6.047-.002-8.751-.002-8.751-2.252-17.113-1.555-1.645-1.555-1.645-3.563-2.563l-2.152-1.207L1023 145c-7.159-4.092-13.004-8.843-15.64-16.977-1.437-8.084-.54-15.278 4.046-22.12 5.728-7.228 13.64-11.044 22.594-12.903 3.129-.262 6.237-.244 9.375-.211l2.773.004c3.022.006 6.045.027 9.067.047l6.399.016c5.631.013 11.263.037 16.894.065a13003.165 13003.165 0 0 0 33.207.116c14.484.036 28.94-.11 43.414-.7 30.575-1.243 63.173.932 86.52 23.061ZM1138 150a61.714 61.714 0 0 0-.13 4.229l-.009 2.72.006 2.957-.003 3.016c0 2.108.001 4.216.006 6.325.005 3.24 0 6.478-.007 9.718 0 2.043.002 4.086.004 6.129l-.006 2.957.01 2.72.002 2.407c-.072 1.842-.072 1.842 1.127 2.822 3.815-.216 6.265-.424 9.313-2.813 6.406-8.305 5.491-19.978 4.378-29.953-.926-4.82-2.568-8.354-5.691-12.234-2.636-1.757-6.277-3.723-9-1Zm0 103c-.26 4.472-.19 8.959-.188 13.438l.003 3.977c.047 7.463.24 14.852 1.06 22.272l.238 2.207c.476 3.985.476 3.985 2.887 7.106 5.442.534 9.215-.382 14-3 5.65-5.798 5.207-11.513 5.25-19.188l.063-2.751c.043-7.513-1.004-14.451-5.75-20.498-2.975-2.975-4.889-4.411-9.106-4.793l-2.645.042-2.667.02c-2.126-.067-2.126-.067-3.145 1.168Z"/><path d="M1494 125c9.744 8.86 15.03 22.034 16 35l.21 2.695c.64 16.877-6.537 34.298-17.21 47.305-3.038 3.065-6.08 5.5-9.875 7.563-2.321 1.256-2.321 1.256-2.885 3.716-.289 3.271.341 4.768 1.795 7.694l1.433 2.933 1.594 3.156 1.63 3.307c1.455 2.942 2.921 5.878 4.395 8.81 1.22 2.432 2.43 4.868 3.64 7.304a4486.11 4486.11 0 0 0 9.762 19.502c1.273 2.54 2.536 5.085 3.788 7.636 15.371 31.285 34.738 68.592 69.727 80.848 30.284 9.789 63.03 11.006 94.522 13.333 26.398 1.958 26.398 1.958 37.01 3.667l2.094.328c5.16.918 9.621 2.454 13.37 6.203.576 3.704.417 5.404-1.75 8.5-12.835 11.155-32.45 14.136-48.75 16.625l-2.437.378c-5.681.877-11.37 1.698-17.063 2.497l-3.872.557c-19.393 2.66-38.832 2.774-58.378 2.88l-3.856.038c-21.962.177-41.128-1.537-60.894-11.475l-3.012-1.469c-11.23-5.767-20.874-13.88-29.988-22.531l-1.487-1.389c-9.304-8.73-17.028-18.3-24.513-28.611l-1.33-1.832a897.165 897.165 0 0 1-6.076-8.512 673.805 673.805 0 0 0-5.75-8 670.044 670.044 0 0 1-25.719-37.969 5886.692 5886.692 0 0 0-4.602-7.277 1255.824 1255.824 0 0 1-3-4.769c-11.937-19.629-11.937-19.629-29.523-33.641h-4c-1.224 3.672-1.162 7.07-1.168 10.895l-.01 2.375c-.005 1.665-.007 3.33-.007 4.995-.002 2.5-.02 5-.04 7.499-.831 18.405-.831 18.405 6.225 34.236 1.799 1.31 3.613 2.6 5.438 3.875 4.848 3.403 8.425 6.505 10.562 12.125.722 5.235-.122 8.586-3 13-7.531 7.908-18.538 9.754-29 11l-2.119.265c-8.729.955-17.47.921-26.24.92-2.674.002-5.348.02-8.022.04-44.215.146-44.215.146-59.342-13.815-3.316-3.926-4.165-7.83-3.886-12.922 1.714-7.001 8.271-11.137 13.82-15.133 7.07-5.356 9.016-13.737 10.35-22.086 1.903-14.184 1.602-28.593 1.607-42.87l.01-6.76c.006-4.694.008-9.389.007-14.083 0-5.982.014-11.964.031-17.947.011-4.643.013-9.286.013-13.929 0-2.205.005-4.41.013-6.614 1.217-22.11 1.217-22.11-6.715-41.754-4.177-3.448-8.515-6.163-13.293-8.722-3.377-2.403-4.95-4.975-5.668-9.055-.009-5.697.39-9.195 4.434-13.535 9.762-8.4 21.377-9.49 33.813-9.25l3.212.016c5.758.055 11.47.315 17.213.734 8.385.59 16.735.738 25.137.75l2.435.008c13.294.02 26.445-.73 39.69-1.82 33.368-2.719 63.165-.703 89.5 22.562Zm-96 26c-1.17 4.799-1.343 9.587-1.563 14.5l-.128 2.757c-.422 9.914-.4 19.822-.309 29.743 1.43-.115 2.86-.242 4.29-.375.795-.07 1.591-.14 2.412-.21 3.914-.706 5.722-2.471 8.298-5.415 3.235-5.44 3.266-11.407 3.313-17.563.005-.708.01-1.416.017-2.145-.105-7.655-1.509-14.115-6.33-20.292-2.287-1.144-3.593-1.103-6.125-1.063L1398 151ZM581 92l2.197.504C620.108 101.132 648.67 123.366 669 155l1.133 1.745C689.003 186.23 695.298 222.98 688 257l-.809 3.828C683.607 275.802 677.177 289.647 668 302l-1.742 2.379C651.088 324.476 632.744 338.627 610 349l-3.5 1.617c-38.386 16.537-81.568 16.564-120.246 1.211-16.731-6.98-31.065-16.414-44.254-28.828l-1.793-1.598c-25.96-24.11-36.099-60.04-38.394-94.191-.87-31.596 10.853-64.216 31.187-88.211l1.325-1.566C449.455 119.774 468.348 107.295 490 99l3.629-1.395C520.875 87.877 552.779 85.193 581 92Zm-63.25 75.188c-5.486 6.333-6.255 13.68-6.125 21.687l.03 2.783c.598 26.844 10.252 53.11 22.533 76.717l1.223 2.36c3.514 6.55 7.09 11.82 13.714 15.577l2.57 1.489c4.262 2.217 7.532 2.59 12.305 2.199 6.603-2.267 10.112-5.687 13.559-11.734 9.64-21.841-1.738-54.95-9.64-75.952C561.9 186.86 553.958 169.296 538 162c-7.965-2.153-14.477-.996-20.25 5.188Z"/><path fill="#FCFCFC" d="M1746.398 98.7A195.075 195.075 0 0 1 1753 104l2.938 2.32c3.223 2.696 5.762 5.729 8.312 9.055l1.438 1.864c23.54 30.869 40.773 67.025 56.84 102.21 4.221 9.232 8.603 18.388 12.972 27.551 9.114 19.122 9.114 19.122 13.465 28.535l.913 1.975c1.377 2.982 2.749 5.966 4.114 8.953 1.314 2.857 2.653 5.7 4.008 8.537l1.007 2.212c1.615 3.253 2.689 4.645 6.016 6.206 1.66.38 1.66.38 3.352.77 7.935 2.103 12.867 4.94 17.625 11.812 3.175 8.078 2.378 15.389-.742 23.352-3.757 7.909-10.037 12.644-18.098 15.738-19.758 6.472-39.683 7.118-60.285 7.098l-3.098-.001c-60.99-.075-60.99-.075-75.652-13.437-6.18-6.808-7.827-13.542-7.508-22.66.744-6.003 2.89-9.562 7.07-13.84 3.891-2.935 9.347-6.25 14.313-6.25v-2c-14.779-2.562-29.549-2.227-44.5-2.125-2.577.01-5.154.02-7.73.027-6.257.022-12.514.055-18.77.098v4c.652.23 1.305.461 1.977.7 6.633 2.474 11.213 4.888 15.773 10.425 3.32 7.635 3.892 14.44 1.285 22.371-3.068 7.422-7.82 11.975-15.035 15.504-10.979 4.345-22.301 6.019-34 7 2.956.823 5.76 1.215 8.818 1.433l2.898.213 3.128.221 6.66.496c3.472.255 6.945.508 10.417.757 11.467.824 22.897 1.688 34.274 3.372l2.394.351c9.298 1.47 18.546 3.637 24.458 11.509 2.325 4.021 2.41 8.136 1.953 12.648-2.61 7.522-8.349 12.363-15.188 16.063-22.071 10.258-47.051 13.458-71 16.187l-2.208.252c-16.465 1.85-32.778 2.685-49.345 2.683-2.99.002-5.98.02-8.97.04-38.54.113-70.733-9.511-99.289-36.225l-1.954-1.82c-13.36-12.586-23.992-26.66-34.457-41.669-3.186-4.564-6.463-9.045-9.802-13.498-6.862-9.167-13.097-18.583-19.117-28.319a1909.878 1909.878 0 0 0-9.858-15.694l-1.942-3.11c-4.497-7.088-9.422-13.508-14.87-19.89.14 3.959.289 7.917.438 11.875l.119 3.36c.253 6.622.684 13.181 1.443 19.765l2 .625c7.774 3.563 13.024 8.808 17 16.375 2.28 6.88 1.996 14.748-1 21.313-5.534 9.657-13.602 13.61-23.977 16.523-31.14 7.507-80.963 11.062-110.023-5.836-7.985-6.079-13.887-11.963-16-22-.616-6.652.493-12.841 4.7-18.14 3.837-3.951 8.009-7.314 12.538-10.438 5.822-4.699 6.23-10.914 7.061-17.952.638-6.695.85-13.318.846-20.04l.01-3.331c.01-3.598.012-7.196.013-10.794l.01-7.556c.006-5.264.008-10.527.007-15.79 0-6.064.01-12.128.026-18.192.015-5.864.018-11.728.018-17.593 0-2.482.005-4.964.013-7.446.01-3.472.007-6.944 0-10.416.01-1.525.01-1.525.018-3.08.03-10.36.03-10.36-4.018-19.595-2.596-1.895-5.26-3.352-8.117-4.825-6.291-3.564-10.557-7.807-12.754-14.82-1.462-7.848-.38-15.465 4.07-22.16 7.951-9.832 20.36-14.204 32.684-15.582 5.056-.31 10.123-.345 15.188-.375l2.26-.015c4.65.014 9.238.263 13.872.636 8.708.655 17.39.7 26.118.692l2.58.002c11.021-.001 21.93-.307 32.92-1.19 36.994-2.957 71.29-1.725 100.796 23.043 11.682 10.68 20.227 26.015 21.28 42.069.902 22.072-4.51 42.759-19.139 59.888a130.166 130.166 0 0 1-9 8c4.049 8.833 8.227 17.557 12.813 26.125 3.73 6.972 7.199 14.032 10.562 21.188 12.363 26.13 26.93 54.844 50.625 72.687h2l-.656-1.617c-2.978-7.968-3.794-15.62-.305-23.574 4.308-8.108 10.865-10.663 19.031-14.102l3.118-1.394 2.855-1.2c8.524-6.091 12.602-16.95 16.957-26.175a8621.33 8621.33 0 0 1 1.96-4.102c6.196-13.005 12.177-26.108 18.077-39.25 2.077-4.624 4.17-9.242 6.271-13.855 17.773-37.513 17.773-37.513 24.982-77.973.51-15.005 2.043-28.237 13.26-39.266 20.914-17.926 50.025-19.962 72.848-3.793Zm-68.214 14.28c-7.36 9.168-6.746 19.516-7.307 30.823-.699 12.028-2.97 23.47-6.814 34.885l-.888 2.643c-4.25 12.223-9.76 23.929-15.175 35.669l-1.458 3.174c-2.409 5.247-4.83 10.488-7.26 15.724a2427.188 2427.188 0 0 0-7.313 15.954l-2.118 4.654a4024.165 4024.165 0 0 0-3.096 6.817c-21.043 46.47-21.043 46.47-43.548 55.052-3.568 1.808-5.166 3.2-7.207 6.625-.59 2.944-.59 2.944-.438 6l.004 3.063c.644 4.358 2.484 6.987 5.559 10.062 12.956 8.45 31.873 7.26 46.813 7.188l2.376-.006c24.912.082 24.912.082 46.686-10.807 3.734-4.668 4.629-8.527 4-14.5-3.805-7.61-10.437-9.245-17.926-12.133C1661 313 1661 313 1660 312c-.86-6.439.189-11.706 4-17 5.983-5.013 14.479-4.159 21.895-4.168l2.867-.01c2.001-.005 4.002-.007 6.003-.007 3-.002 6-.02 8.999-.04 9.128-.027 18.167.117 27.248 1.112l2.153.235c5.947.737 11.185 1.438 15.773 5.44 2.439 3.288 2.621 6.284 2.628 10.29-.798 3.029-2.153 4.173-4.566 6.148a101.313 101.313 0 0 1-6.063 3.063c-5.976 2.601-5.976 2.601-9.624 7.687-.649 4.666-.938 8.026 1.25 12.313 6.515 7.852 12.3 10.701 22.5 12l3.597.472c10.188 1.157 20.345 1.63 30.594 1.668l3.702.017c2.568.01 5.137.016 7.706.02 3.866.01 7.732.041 11.598.072 31.523.76 31.523.76 59.74-11.312 3.991-5.117 5.472-9.312 5.316-15.719-.396-2.86-1.345-4.907-3.355-7.004-3.629-2.363-7.748-3.323-11.902-4.418-6.302-1.77-8.095-3.91-11.293-9.5-4.432-8.43-8.341-17.122-12.342-25.763-3.924-8.455-7.955-16.852-12.046-25.228-5.434-11.132-10.77-22.298-15.94-33.555-10.509-22.795-21.696-45.175-34.438-66.813l-1.484-2.53c-5.655-9.594-11.535-18.774-18.516-27.47l-1.691-2.191c-8.099-9.972-20.343-18.952-33.309-20.809-16.944-1.268-30.81.89-42.816 13.98Zm-262.598-11.324a3897.518 3897.518 0 0 1-7.543.627c-15.232 1.24-30.383 2.012-45.668 1.967l-2.342-.003a378.08 378.08 0 0 1-26.478-1.016c-5.582-.363-11.15-.454-16.743-.481-1.607-.03-1.607-.03-3.248-.063-11.343-.054-21.765 1.741-30.564 9.313-3.328 3.572-4.265 6.233-4.5 11 .26 4.83 1.023 7.444 4.5 11 2.997 1.89 6.056 3.629 9.148 5.36 6.206 3.57 8.369 7.06 10.274 13.75 1.468 7.34 1.724 14.646 1.707 22.113l.006 2.97c.004 3.218.001 6.437-.002 9.655l.003 6.774c.001 4.728 0 9.456-.006 14.184-.005 6.02-.002 12.039.004 18.058.004 4.664.002 9.329 0 13.994 0 2.217 0 4.433.002 6.65.04 49.146.04 49.146-9.136 59.492-2.215 2.166-4.573 4.08-7 6a477.85 477.85 0 0 0-4.375 3.75l-2.023 1.734c-2.656 2.514-2.858 4.594-3.04 8.141.093 4.917 1.149 7.832 4.348 11.559 15.911 13.829 41.126 13.173 60.976 13.077 2.613-.011 5.224 0 7.837.012 28.222.5 28.222.5 53.277-10.273 3.377-3.637 4.791-6.225 5.375-11.188-.497-5.056-1.996-8.036-5.375-11.812-2.754-2.163-5.599-4.15-8.469-6.156-4.143-3.019-6.04-5.505-7.102-10.562-1.442-9.372-1.707-18.515-1.635-27.981.019-2.523.02-5.046.02-7.569.005-1.612.011-3.225.018-4.837l.003-2.273c.03-3.138.165-5.622 1.165-8.622 4.956.453 7.337 1.66 10.938 5.063l2.402 2.222c5.749 5.867 10.745 11.957 15.223 18.84l1.52 2.307c4.737 7.22 9.357 14.515 13.983 21.806a625.737 625.737 0 0 0 22.508 33.043 974.592 974.592 0 0 1 6.696 9.313c23.517 33.063 52.027 65.685 93.97 73.382 11.988 1.932 24.22 1.475 36.322 1.399l3.986-.014c19.666-.074 38.965-.588 58.452-3.361 1.516-.207 3.033-.413 4.55-.618 33.69-3.71 33.69-3.71 63.45-18.382 2.33-3.496 2.588-4.887 2-9-7.74-7.511-20.443-7.506-30.688-8.438l-3.771-.365c-8.489-.809-16.987-1.468-25.49-2.1-39.556-2.953-39.556-2.953-56.238-5.597l-3.658-.574c-30.214-5.104-52.455-17.167-70.696-42.026-10.607-14.97-19.058-31.015-27.215-47.406-1.872-3.753-3.753-7.502-5.634-11.25-2.121-4.227-4.24-8.456-6.358-12.684-1.095-2.185-2.19-4.37-3.287-6.554-1.602-3.192-3.202-6.386-4.8-9.58l-1.484-2.952-1.378-2.754-1.205-2.404c-3.121-6.584-3.121-6.584-3.016-9.918 1.218-3.182 2.723-4.006 5.605-5.773 7.611-4.689 11.976-11.116 16-18.938.39-.746.778-1.492 1.178-2.26 8.092-15.884 9.113-32.298 4.135-49.427-8.025-19.464-23.453-29.832-42-38-15.356-6.325-33.047-6.806-49.414-5.344ZM443.813 36.125c6.09 5.221 7.77 11.814 8.558 19.496.37 21.312-3.893 48.983-19.035 65.156C413.906 139.01 386.75 148.711 361 153l-3.832.652c-14.236 2.15-28.865 2.948-43.203 1.61-5.573-.368-11.132-.38-16.715-.387l-3.195-.013c-11.928-.347-11.928-.347-23.055 3.138-.418 3.332-.418 3.332 0 7 9.674 9.178 25.732 11.851 38.217 15.62C329.172 186.664 348.11 194.05 364 208l2.305 2.016c13.648 12.75 22.411 30.884 23.129 49.613.023 2.311.024 4.622.003 6.933l-.022 3.71c-.186 10.317-1.471 19.85-4.415 29.728l-.65 2.204C379.144 319.332 371.237 332.975 359 346l-1.534 1.662C338.634 367.955 315.761 372.885 289 374c-4.62.086-9.237.084-13.859.045-2.174-.018-4.348-.028-6.523-.036-6.17-.024-12.339-.06-18.508-.105-32.103-.276-32.103-.276-63.673 5.096l-3.56.91c-10.645 2.83-20.86 6.587-31.135 10.527C131.01 398.385 109.431 406.231 87 407l-3.277.121c-14.911.28-32.97-1.031-44.973-10.933-4.181-4.205-6.586-8.199-6.832-14.188 1.038-14.368 14.292-26.232 24.465-35.07a363.651 363.651 0 0 1 6.913-5.586 775.132 775.132 0 0 0 3.646-2.895c9.981-7.97 20.198-15.427 30.796-22.554 3.37-2.27 6.644-4.634 9.887-7.082 12.14-8.88 25.211-15.79 39.375-20.813l3.7-1.316c18.66-5.79 36.531-2.105 54.988 2.628 4.022 1.005 8.048 1.999 12.074 2.989l2.927.723c11.26 2.75 22.841 5.562 34.499 5.351l2.072.035c5.454-.031 9.26-1.591 13.615-4.785 1.555-2.246 1.341-3.96 1.125-6.625l-2.161-.855c-2.77-1.117-5.512-2.29-8.257-3.465-6.855-2.862-13.85-5.207-20.894-7.555-10.222-3.46-20.14-7.054-29.688-12.125l-1.78-.928c-24.645-12.943-43.8-33.128-52.407-59.744-5.808-19.625-3.551-40.303 6.187-58.328l1.336-2.504C176.774 119.541 196.103 105.78 220 99c6.862-1.874 13.787-3.455 20.724-5.022 4.049-.92 8.087-1.88 12.126-2.842 24.695-5.86 49.34-10.797 74.482-14.323 31.18-4.449 57.176-13.81 83.407-31.168 21.556-14.127 21.556-14.127 33.074-9.52Zm-31.965 21.254c-27.982 19.175-60.064 27.484-93.445 31.416-18.615 2.252-36.852 6.166-55.036 10.686-6.97 1.728-13.932 3.27-20.992 4.582C217.241 108.87 194.02 118.1 178 139c-11.595 17.088-16.137 35.73-12.6 56.33 1.04 4.454 2.682 8.53 4.6 12.67l1.469 3.305c13.577 27.753 41.331 43.357 69.455 53.065a266631857.53 266631857.53 0 0 0 6.368 2.158 754.915 754.915 0 0 0 10.604 3.491c6.776 2.211 12.746 4.531 18.476 8.855 1.572 1.316 1.572 1.316 3.628 1.126l.938 2.375c.99 2.548.99 2.548 2.062 4.625.384 3.997.279 6.43-1.5 10.063-6.265 7.361-13.29 11.363-22.926 12.253-17.173.535-33.617-4.537-50.115-8.733-7.35-1.853-14.705-3.573-22.147-5.02l-2.478-.497c-24.131-4.5-47.425 6.76-67.007 19.98-3.303 2.28-6.567 4.614-9.827 6.954-1.23.87-2.46 1.738-3.691 2.605-37.005 23.11-37.005 23.11-60.809 57.145.637 4.14 1.932 5.355 5.172 7.863C66.652 400.92 94.63 397.084 115 392c13.764-3.933 27.202-8.846 40.5-14.125 8.52-3.374 17.218-5.894 26.063-8.25l3.785-1.012c3.546-.92 7.074-1.824 10.652-2.613l2.413-.535c9.738-1.904 19.453-1.798 29.333-1.844 1.902-.016 3.805-.033 5.707-.051 4.98-.046 9.962-.08 14.943-.113 7.966-.052 15.932-.117 23.898-.188 2.759-.022 5.518-.039 8.276-.055 18.135-.058 18.135-.058 35.993-2.901l2.17-.53c11.55-2.992 19.837-8.445 28.267-16.783l2.82-2.637C356.023 334.44 360.847 328.5 365 321l1.582-2.832c11.92-22.544 16.106-49.396 9.418-74.168-1.078-3.177-2.4-6.055-4-9l-1.168-2.344c-14.512-26.895-45.016-36.063-72.223-44.324C268.172 179.08 268.172 179.08 261 169c-1.849-3.698-1.336-7.956-1-12 1.746-5.238 4.204-7.367 9-10 9.757-3.703 20.567-3.087 30.875-3.125l2.664-.014c3.884.01 7.673.104 11.524.627 13.525 1.758 27.046.487 40.5-1.3l3.78-.501c24.785-3.512 53.313-13.422 70.532-32.625 9.799-13.718 12.323-33.893 12.5-50.25l.042-2.72c-.035-4.75-.12-8.355-3.417-12.092-9.66 0-18.483 7.123-26.152 12.379ZM769 92l2.676.59c11.223 2.878 18.006 9.123 23.812 18.92a459.111 459.111 0 0 1 4.574 8.49l3.442 6.434 1.758 3.304c2.727 5.118 5.48 10.223 8.238 15.325l1.61 2.98c4.374 8.066 8.874 16.058 13.408 24.036A773.014 773.014 0 0 1 840 193c2.438-2.22 3.881-4.373 5.37-7.306l1.347-2.635 1.44-2.86 1.522-2.99c1.612-3.171 3.217-6.346 4.821-9.522l3.148-6.193c4.177-8.22 8.34-16.447 12.441-24.705l1.498-3.012c.928-1.87 1.853-3.74 2.775-5.612C881.276 114.233 889.707 100.518 905 95c24.932-7.76 55.657-8.17 80 2 9.209 4.933 14.328 11.092 17.375 21 1.376 6.68.19 13.409-2.668 19.555-2.324 3.328-5.212 5.739-8.27 8.382-5.63 4.949-8.568 8.393-9.437 16.063l-.265 2.012c-2.408 18.366-2.94 36.8-2.923 55.3v2.944c.02 22.777.954 45.508 3.188 68.181l.214 2.204c.615 5.455 1.193 9.003 5.466 12.64l3.195 2.219c7.69 5.366 11.427 10.28 13.125 19.5.457 7.683-2.598 14.942-7.5 20.79-6.936 6.502-15.955 9.28-25 11.46l-2.046.495c-11.453 2.564-23.083 2.441-34.757 2.44-2.664.002-5.327.02-7.99.04-47.02.156-47.02.156-62.32-13.635-5.407-6.2-7.133-12.722-6.739-20.832 1.15-9.016 6.767-14.749 13.602-20.133l2.016-1.46c4.424-5.522 4.102-13.931 4.359-20.728l.115-2.598c.324-7.948.36-15.886.26-23.839-6.232 12.765-12.326 25.567-18.063 38.563l-1.493 3.38-2.97 6.722c-2.41 5.453-4.835 10.9-7.287 16.335l-1.271 2.873c-9.555 21.072-9.555 21.072-20.229 25.502-5.902 1-10.585.717-15.937-2.063-5.492-4.618-8.98-10.021-12.375-16.25l-1.309-2.39C784.555 308.522 774.506 284.094 764 260v47l5 2c7.545 3.86 12.064 7.206 15.313 15.25 1.28 6.987.56 13.638-2.973 19.875-7.715 10.796-20.076 13.938-32.504 16.297-21.788 3.284-50.106 4.888-69.2-8.02-6.217-4.99-9.403-10.465-10.573-18.34-.41-6.493 1.071-11.717 5.125-16.812 4.426-3.54 8.929-6.483 14.187-8.625 2.934-1.436 2.934-1.436 3.74-4.813 1.432-6.167 1.866-12.39 2.385-18.687l.19-2.26c2.467-29.707 3.464-59.561 3.56-89.365l.016-2.498c.056-11.134-.635-21.983-2.266-33.002l-.424-2.907L695 153c-2.281-1.24-2.281-1.24-5-2-7.776-3.925-14.48-8.436-18.164-16.57-2.519-7.688-2.233-14.68 1.434-21.946 6.289-10.022 15.05-14.896 26.39-17.513l2.778-.596 2.944-.641C725.829 89.409 748.462 87.176 769 92Zm-56.313 10.688-3.063.449c-10.274 1.756-19.747 4.654-26.417 12.996-2.512 3.886-2.513 7.352-2.207 11.867 3.016 8.694 11.108 13.161 19 17l3 1c.879 1.75.879 1.75 1.563 4l.69 2.188L706 155l.51 1.808c1.838 7.174 1.995 14.384 2.178 21.755l.059 2.143c.502 18.777-.022 37.53-.747 56.294l-.099 2.564c-.687 17.469-1.56 34.915-3.338 52.311l-.334 3.364c-1.747 15.61-1.747 15.61-5.98 19.279-2.024 1.307-4.1 2.391-6.249 3.482-1.8 1.027-3.592 2.07-5.375 3.125l-2.523 1.445c-2.364 1.416-2.364 1.416-4.102 4.43-.46 5.605-.205 9.193 3 14 6.606 7.115 16.568 9.336 26 10 4.876.163 9.747.185 14.625.188l3.871.037c15.288.023 32.346-.635 44.078-11.541 2.663-3.145 2.622-6.476 2.852-10.454-.661-3.461-2.223-5.505-4.426-8.23-3.244-1.976-6.56-3.499-10.004-5.094-3.593-2.286-4.54-3.943-5.996-7.906-1.207-5.452-1.145-10.822-1.133-16.375l-.003-3.035c0-2.118.001-4.236.006-6.354.005-3.197 0-6.394-.007-9.591-.016-30.984-.016-30.984 4.137-36.645 2.313-.75 2.313-.75 5 0 4.81 4.387 7.592 9.66 10.137 15.555l1.095 2.455c1.163 2.617 2.31 5.24 3.456 7.865.804 1.817 1.61 3.634 2.418 5.45a3659.444 3659.444 0 0 1 10.128 23.097c4.337 9.959 8.755 19.843 13.578 29.578.65 1.318.65 1.318 1.31 2.663 5.202 10.57 5.202 10.57 12.878 19.337 4.173.63 6.272.46 9.863-1.809 4.478-3.964 6.561-9.413 9.012-14.753l1.665-3.54c5.417-11.56 10.545-23.255 15.707-34.931 18.06-40.838 18.06-40.838 25.753-45.967 2.043-.195 2.043-.195 4.188-.125L887 241c.857 2.979 1.135 5.65 1.161 8.746l.03 2.845.012 3.061.017 3.186c.01 2.228.016 4.456.02 6.685.01 3.37.04 6.741.072 10.112.147 28.722.147 28.722-7.312 37.365a131.861 131.861 0 0 1-5.625 5.125c-4.492 3.866-7.014 6.195-7.813 12.125.58 4.966 2.035 8.085 5.438 11.75 12.399 9.07 30.544 9.14 45.316 9.203l3.198.017c2.223.01 4.446.016 6.669.02 3.346.01 6.692.041 10.038.072 26.447.52 26.447.52 49.81-10.085 3.295-3.684 4.838-6.488 5.219-11.54-.282-4.162-1.078-6.141-3.25-9.687-2.147-1.84-4.195-3.46-6.5-5.063-6.872-4.822-9.601-8.743-11.062-16.96-.885-6.013-1.479-12.048-2-18.102l-.195-2.23c-2.63-30.984-3.327-62.606-1.243-93.645l.2-2.983c2.254-31.517 2.254-31.517 15.487-43.142l2.887-2.383c3.523-3.619 4.254-6.943 4.801-11.867-.567-5.484-2.118-9.467-6.152-13.324-16.827-12.44-44.528-11.236-64.43-8.77-11.055 1.748-20.832 5.172-27.926 14.176-6.03 9.4-10.972 19.236-15.887 29.258a532.501 532.501 0 0 1-8.105 15.785c-3 5.634-5.908 11.302-8.724 17.03C849.597 201.269 849.597 201.269 844 205c-3.375.438-3.375.438-7 0-4.357-3.641-6.818-7.764-9.438-12.688-.42-.772-.84-1.545-1.274-2.34-1.44-2.652-2.865-5.311-4.288-7.972-2.27-4.23-4.541-8.459-6.813-12.688l-1.798-3.353c-4.429-8.237-8.977-16.4-13.621-24.518-2.747-4.813-5.426-9.648-8.002-14.554l-1.6-3.023a464.366 464.366 0 0 1-2.946-5.685c-3.737-7.07-6.96-11.655-14.667-14.412-9.392-2.765-18.654-3.418-28.428-3.267l-2.132.016c-9.856.084-19.544.722-29.306 2.171Z"/><path fill="#FCFCFC" d="M1241.648 115.398c7.853 8.688 12.708 18.162 15.352 29.602l.574 2.316c2.84 17.903-1.043 35.306-10.574 50.684-2.277 2.85-4.631 5.5-7.18 8.11-1.883 1.767-1.883 1.767-2.82 3.89l1.95.926c18.402 9.32 30.544 23.809 38.152 42.828 5.793 18.6 2.326 39.97-6.29 57.059-13.905 23.963-34.072 38.513-60.588 45.59-12.046 2.994-23.968 3.907-36.349 3.784l-4.263-.019c-8.422-.052-16.823-.299-25.237-.668-14.226-.613-28.45-.614-42.688-.625l-3.474-.008c-13.73-.024-27.411.2-41.125.888-30.97 1.552-30.97 1.552-43.178-8.685-5.795-6.281-8.226-14.06-8.129-22.437.528-6.353 3.006-10.913 7.219-15.633 3.04-2.318 6.165-4.465 9.32-6.621 5.565-4.94 5.376-12.483 6.18-19.504l.386-3.308c1.443-12.823 2.4-25.684 3.114-38.567l.132-2.313c.918-16.6 1.056-33.188 1.053-49.809 0-3.69.014-7.38.031-11.07.011-2.882.013-5.765.013-8.648.001-2.015.012-4.031.023-6.047-.002-8.751-.002-8.751-2.252-17.113-1.555-1.645-1.555-1.645-3.563-2.563l-2.152-1.207L1023 145c-7.159-4.092-13.004-8.843-15.64-16.977-1.437-8.084-.54-15.278 4.046-22.12 5.728-7.228 13.64-11.044 22.594-12.903 3.129-.262 6.237-.244 9.375-.211l2.773.004c3.022.006 6.045.027 9.067.047l6.399.016c5.631.013 11.263.037 16.894.065a13003.165 13003.165 0 0 0 33.207.116c14.484.036 28.94-.11 43.414-.7 30.575-1.243 63.173.932 86.52 23.061Zm-222.148-3.335c-2.476 4.848-2.282 9.621-1.5 14.937 3.162 6.207 8.926 8.18 14.957 11.273 4.627 2.626 6.72 5.344 9.293 9.977 1.984 7.275 1.907 15.042 1.918 22.54l.013 2.79c.01 3.015.01 6.03.006 9.045v3.157c-.013 16.275-.382 32.52-1.062 48.78l-.119 2.927c-2.755 66.242-2.755 66.242-11.276 75.077-3.293 2.729-6.78 5.184-10.304 7.602-2.926 2.21-4.268 3.806-4.832 7.469-.198 6.43.286 10.544 4.312 15.644 6.755 5.545 12.782 6.277 21.344 6.031l3.37-.046c3.794-.062 7.587-.16 11.38-.266l4.294-.116c6.102-.166 12.203-.34 18.304-.523 17.61-.519 35.173-.631 52.777.139 11.583.487 23.162.673 34.755.732 1.966.012 3.933.029 5.899.051 27.889.304 53.768-4.8 74.537-24.748 13.839-14.388 22.063-33.008 21.684-53.101-1.245-17.105-8.102-29.965-20.5-41.622-6.016-5.15-12.898-8.932-19.992-12.394-2.939-1.51-4.283-2.469-5.758-5.418-.16-2.966.537-4.461 2.46-6.7 2.618-2.634 5.346-5.125 8.102-7.613 10.076-11.108 14.826-25.835 14.417-40.674-.686-13.736-5.703-26.862-15.963-36.365-26.507-21.677-62.848-18.643-95.027-17.278-14.04.593-28.054.785-42.107.76-3.672-.005-7.343 0-11.015.007-21.174.005-21.174.005-31.195-.904-13.119-1.143-22.89.346-33.172 8.83ZM581 92l2.197.504C620.108 101.132 648.67 123.366 669 155l1.133 1.745C689.003 186.23 695.298 222.98 688 257l-.809 3.828C683.607 275.802 677.177 289.647 668 302l-1.742 2.379C651.088 324.476 632.744 338.627 610 349l-3.5 1.617c-38.386 16.537-81.568 16.564-120.246 1.211-16.731-6.98-31.065-16.414-44.254-28.828l-1.793-1.598c-25.96-24.11-36.099-60.04-38.394-94.191-.87-31.596 10.853-64.216 31.187-88.211l1.325-1.566C449.455 119.774 468.348 107.295 490 99l3.629-1.395C520.875 87.877 552.779 85.193 581 92Zm-72 12-3.598.953C473.365 113.83 445.6 134.015 429 163c-17.12 30.355-20.204 64.925-11.408 98.507C423.489 282.471 434.677 300.655 450 316l2.578 2.613c27.474 26.446 64.743 34.146 101.587 33.564 8.183-.18 15.918-1.135 23.835-3.177l2.465-.634C591.125 345.538 601.17 342.05 611 337l3.563-1.7c28.31-13.845 49.69-39.723 60.18-69.175 10.489-31.202 6.198-65.3-8.196-94.55C661.39 161.602 655.15 152.642 648 144l-1.378-1.675C636.119 129.762 623.46 120.512 609 113l-3.102-1.648c-9.237-4.608-18.897-7.027-28.898-9.352l-2.922-.719C553.356 96.794 529.265 98.114 509 104Z"/><path fill="#FBFBFB" d="M544.25 153.438c23.211 13.197 33.497 40.473 40.293 64.96 5.642 21.341 11.552 48.072.457 68.602-4.724 6.948-10.148 10.383-18 13-9.774.836-17.603-.009-25.594-5.918-24.583-20.918-33.2-58.938-39.406-89.082l-.555-2.546c-.707-3.898-.63-7.753-.632-11.704l-.038-2.45c-.028-11.841 3.337-21.908 11.455-30.726 9.114-8.107 21.05-9.184 32.02-4.137Zm-26.5 13.75c-5.486 6.333-6.255 13.68-6.125 21.687l.03 2.783c.598 26.844 10.252 53.11 22.533 76.717l1.223 2.36c3.514 6.55 7.09 11.82 13.714 15.577l2.57 1.489c4.262 2.217 7.532 2.59 12.305 2.199 6.603-2.267 10.112-5.687 13.559-11.734 9.64-21.841-1.738-54.95-9.64-75.952C561.9 186.86 553.958 169.296 538 162c-7.965-2.153-14.477-.996-20.25 5.188Z"/><path fill="#FCFCFC" d="M1153.813 242.563c9.524 5.05 13.931 11.18 17.187 21.437 2.825 10.357 2.696 25.074-1.746 34.84-3.405 5.865-7.054 9.979-13.488 12.496-6.312 1.516-13.797 2.2-19.957-.184-4.878-3.606-6.352-9.488-7.326-15.162-1.053-7.589-.788-15.342-.833-22.987-.017-2.046-.044-4.091-.082-6.136a658.257 658.257 0 0 1-.091-8.902l-.07-2.756c.015-4.333.19-7.299 2.938-10.77 5.92-5.44 16.29-4.808 23.467-1.876ZM1138 253c-.26 4.472-.19 8.959-.188 13.438l.003 3.977c.047 7.463.24 14.852 1.06 22.272l.238 2.207c.476 3.985.476 3.985 2.887 7.106 5.442.534 9.215-.382 14-3 5.65-5.798 5.207-11.513 5.25-19.188l.063-2.751c.043-7.513-1.004-14.451-5.75-20.498-2.975-2.975-4.889-4.411-9.106-4.793l-2.645.042-2.667.02c-2.126-.067-2.126-.067-3.145 1.168Z"/><path fill="#FAFAFA" d="M1409.453 140.691c7.625 3.478 10.816 9.242 13.75 16.746 3.617 11.631 3.057 26.748-1.89 37.938-3.595 6.403-9.35 10.459-16.313 12.625-2.745.414-5.415.466-8.188.438l-2.115.06c-3.223-.003-5.387-.311-8.162-1.986-2.225-3.641-2.039-7.005-1.91-11.137l.046-2.682c.074-3.233.197-6.462.329-9.693l.08-2.05c.179-4.532.384-9.062.616-13.592a977.4 977.4 0 0 0 .222-4.57c.103-2.169.225-4.336.352-6.503l.206-3.816c.685-4.535 2.106-8.011 5.32-11.317 5.143-2.689 12.199-1.999 17.657-.46ZM1398 151c-1.17 4.799-1.343 9.587-1.563 14.5l-.128 2.757c-.422 9.914-.4 19.822-.309 29.743 1.43-.115 2.86-.242 4.29-.375.795-.07 1.591-.14 2.412-.21 3.914-.706 5.722-2.471 8.298-5.415 3.235-5.44 3.266-11.407 3.313-17.563.005-.708.01-1.416.017-2.145-.105-7.655-1.509-14.115-6.33-20.292-2.287-1.144-3.593-1.103-6.125-1.063L1398 151Z"/><path fill="#FBFBFB" d="M1146.672 138.8c7.48 3.299 11.133 8.11 14.32 15.5 4.959 13.673 4.133 29.543-1.992 42.7-2.438 2.813-2.438 2.813-5 5l-1.875 1.688c-5.374 3.319-10.994 3.806-17.125 3.312-3.22-1.33-4.577-2.138-6.115-5.274-.934-2.877-1.15-5.138-1.176-8.155l-.038-3.217-.007-3.444-.02-3.567a1778.2 1778.2 0 0 1-.015-7.462c-.004-3.801-.04-7.601-.078-11.402-.006-2.42-.01-4.838-.012-7.256l-.043-3.438c.035-6.206.242-10.112 4.504-14.785 4.498-2.25 9.98-1.606 14.672-.2ZM1138 150a61.714 61.714 0 0 0-.13 4.229l-.009 2.72.006 2.957-.003 3.016c0 2.108.001 4.216.006 6.325.005 3.24 0 6.478-.007 9.718 0 2.043.002 4.086.004 6.129l-.006 2.957.01 2.72.002 2.407c-.072 1.842-.072 1.842 1.127 2.822 3.815-.216 6.265-.424 9.313-2.813 6.406-8.305 5.491-19.978 4.378-29.953-.926-4.82-2.568-8.354-5.691-12.234-2.636-1.757-6.277-3.723-9-1ZM1704.625 195.688c13.09 5.09 21.637 27.287 27.375 39.312 1.18 3.543 1.27 6.284 1 10-3.142 2.095-3.912 2.256-7.5 2.29l-2.75.04-2.965.006-3.052.02c-2.131.01-4.262.015-6.393.015-3.262.004-6.522.04-9.783.078-2.07.006-4.14.01-6.21.012l-2.957.043c-6.792-.045-6.792-.045-10.037-2.533L1680 243c2.213-9.23 5.382-18.038 8.813-26.875l1.218-3.24c6.537-16.503 6.537-16.503 14.594-17.197ZM1704 209c-4.224 8.82-7.629 17.827-11 27h27c-6.702-13.957-6.702-13.957-15-27h-1Z"/><path fill="#242424" d="M883 311c0 3 0 3-1.193 4.534l-1.65 1.603-1.778 1.748-1.879 1.803-1.879 1.837A890.995 890.995 0 0 1 870 327l-1-2c3.872-4.96 8.209-8.936 13-13l1-1Z"/><path fill="#2A2A2A" d="m902 108 2 1-10 10c0-4.322 2.15-5.884 5-9l3-2Z"/><path fill="#272727" d="m1025 317 2 1-9 9-1-2c2.416-3.192 4.68-5.747 8-8Z"/></svg>