<svg xmlns="http://www.w3.org/2000/svg" viewBox="0 0 1024 610"><defs><filter id="a" width="200%" height="200%" x="-50%" y="-50%"><feGaussianBlur in="SourceGraphic" result="blur" stdDeviation="15"/><feMerge><feMergeNode in="blur"/><feMergeNode in="SourceGraphic"/></feMerge></filter></defs><g filter="url(#a)"><path fill="#3f0" d="M81 43h378c34 0 63-3 94 13 31 15 54 41 66 74 10 29 9 58 9 89 0 20 1 40-2 60-5 46-32 84-74 104l-25 10 63 78 26 33 16 22c4 7 5 14 3 22-6 24-29 19-48 20h-44c-27 0-48 4-65-21l-20-25-46-59-38-47-16-20c-11 2-30 1-42 1h-87v148c0 7-3 13-8 18-3 2-7 4-10 4l-33 1-38-1h-25c-13 0-20-9-21-21V225c1-9 6-11 14-11h110c3 0 7 2 9 5 3 4 3 42 2 49v1l151-1h94c10-1 18-9 18-20v-59c-1-9-11-17-19-17H103l-8-11c-6-14-15-31-20-45-5-10-24-46-24-55 0-5 1-10 5-13 6-6 16-5 25-5Zm132 247c-4-3-6-5-6-11v-43l-26 1h-36l-30-1 1 66v244h60l31 1V385l3-6c3-3 7-4 11-4h146c4 1 11 11 14 15l18 22 70 88c8 10 26 35 37 44l11 2c13-1 89 3 96-2 3-6-9-18-13-24l-20-25-59-74-22-29c-2-3-3-8-1-11 5-7 16-8 24-10 43-14 74-44 81-89 3-18 3-37 3-55-1-25 2-54-5-78a110 110 0 0 0-98-84H76l5 13 13 28 20 43h330c25 0 51-4 65 23l5 14v65l-2 10c-5 16-20 29-37 30H248c-10 0-26 1-35-1Z"/><path fill="#f60" d="M761 165c0-5 4-11 7-14 10-8 28-4 40-5l30 1c9 0 19 9 20 18v91h59c11 0 25-1 35 1 11 1 17 15 17 25-2 18 1 37-1 55-1 4-4 8-6 10-7 8-19 8-29 8-25-1-50 1-75-1v93c0 7-10 15-15 16-9 2-23 2-32 1-14-1-34 5-45-7-2-3-5-7-5-10l-1-5v-88h-91c-7-1-16-8-18-15-3-6-2-60 0-67 1-6 10-15 16-15 22-2 45-1 68-1h26l-1-40v-34l1-17Zm-89 113v54h67l35 1c5 0 8 6 8 10v99h55l-1-30v-67c0-7 4-12 12-13h98v-54h-97c-15 0-13-14-13-25v-84h-54v93c0 10-2 16-13 16h-97Z"/></g></svg>