<?xml version="1.0" encoding="UTF-8"?>
<!DOCTYPE svg PUBLIC "-//W3C//DTD SVG 1.1//EN" "http://www.w3.org/Graphics/SVG/1.1/DTD/svg11.dtd">
<!-- Creator: CorelDRAW 2017 -->
<svg xmlns="http://www.w3.org/2000/svg" xml:space="preserve" width="420mm" height="297mm" version="1.1" style="shape-rendering:geometricPrecision; text-rendering:geometricPrecision; image-rendering:optimizeQuality; fill-rule:evenodd; clip-rule:evenodd"
viewBox="0 0 42000 29700"
 xmlns:xlink="http://www.w3.org/1999/xlink">
 <defs>
  <style type="text/css">
   <![CDATA[
    .fil1 {fill:black}
    .fil4 {fill:#030303}
    .fil7 {fill:#747474}
    .fil9 {fill:#A2A2A2}
    .fil8 {fill:#E0E0E0}
    .fil10 {fill:#E7E7E7}
    .fil6 {fill:#F4F4F4}
    .fil5 {fill:#FAFAFA}
    .fil3 {fill:#FCFCFC}
    .fil2 {fill:#FDFDFD}
    .fil0 {fill:white}
   ]]>
  </style>
 </defs>
 <g id="Capa_x0020_1">
  <metadata id="CorelCorpID_0Corel-Layer"/>
  <g id="_2915435692320">
   <path class="fil0" d="M14658 12067c14,-138 28,-252 159,-268 33,99 71,171 79,292 -94,-42 -29,-46 -137,-93l18 178c-68,2 -75,-48 -118,-110zm960 102c-291,-110 -29,-359 72,-413 320,-171 345,226 188,303 -34,-43 -24,-99 -36,-158 -88,10 -154,81 -229,124l6 144zm-192 -423c-58,-104 74,-206 161,-257 168,-99 189,-80 336,0l-60 18c-439,43 -283,164 -437,239zm842 -1157c-106,-157 36,-523 100,-638 35,-63 312,-379 372,-407 31,82 -35,199 -38,306 -5,139 19,232 -57,337 -123,169 -170,96 -285,310 -34,63 -26,73 -92,92zm5508 4370c26,-84 -7,-29 135,-20l433 2c20,-37 60,56 0,-63 -43,-59 -450,-272 -556,-326 -333,-169 -284,-212 -613,-48 31,260 367,1014 482,1169 -179,-140 -681,-782 -762,-1073 -59,16 -70,24 -124,43 -71,25 -66,30 -118,9 42,-96 169,-93 339,-202 260,-167 365,-259 685,-423 130,-67 231,-134 354,-200 129,-69 246,-120 354,-201 253,-188 513,-430 704,-671 53,-67 72,-92 136,-152 67,-63 65,-82 118,-149 46,-59 87,-101 131,-156 317,-393 381,-626 625,-1037 70,-119 164,-200 236,-318 136,-226 294,-435 472,-637 55,-63 212,-234 243,-306 -366,-27 -696,305 -973,459 -230,128 -231,190 -274,209 -1,-109 217,-396 279,-491 133,-205 143,-329 219,-582 198,-661 139,-1152 411,-1970 71,-214 161,-368 237,-562 114,-289 386,-580 567,-830 86,-119 50,-117 26,-135 -57,-22 -143,92 -208,138l-438 362c-442,382 -575,570 -891,1141 -677,1222 -214,2417 -1087,3757 -103,158 -167,344 -290,511 -218,298 -530,577 -774,848 -216,240 -725,633 -1006,821 -161,108 -232,157 -440,106 45,-82 40,-32 86,-88 -246,-266 -381,-703 -420,-1090 -19,-189 12,-318 2,-480 -32,43 -66,44 -115,91 -138,130 -276,197 -494,225 -146,19 -273,32 -409,-16 -59,-21 -108,-45 -151,-76 -26,-19 -38,-27 -65,-57 -51,-55 -28,-24 -57,-84 110,26 154,71 295,58 275,-25 467,-259 521,-528 46,-233 -80,-979 -286,-1089 -60,174 -186,300 -304,391 -186,144 -303,137 -582,140 4,-5 11,-18 13,-14 18,29 19,-21 26,-27 195,-185 322,-309 422,-588 174,-487 -154,-1257 -485,-1559 -117,-106 -427,-401 -654,-401 -83,130 -219,321 -404,332 68,-136 167,-124 245,-266 114,-208 125,-524 258,-727 68,-105 135,-191 163,-325 -198,12 -641,231 -773,330 -127,95 -167,157 -257,298 -65,102 -136,293 -255,345 33,-178 89,-208 144,-342l-33 -13c-4,-1 -12,-4 -17,-6 -5,-1 -11,-3 -17,-5l-247 -35c-194,8 -583,371 -636,530 111,106 172,155 163,391 -7,203 -42,290 -174,382 -262,183 -694,150 -807,-101 -27,22 -11,7 -36,35 -169,191 23,208 -142,988 -66,311 -162,729 -115,1035 -85,-14 -38,-23 -120,-41 -74,211 -173,580 39,759 111,93 102,149 243,249 302,214 317,395 600,287 88,-34 258,-117 329,-164 323,-210 51,-18 368,-617 64,-121 117,-180 204,-268 174,-176 300,-347 552,-434 244,-84 136,-16 259,-233 120,-210 243,-470 166,-758 -50,-187 -276,-522 -240,-745 80,37 158,398 273,565 143,207 165,418 67,671 -316,822 -373,430 -833,852 42,70 80,90 130,140 357,356 227,1062 -24,1421 -326,466 -428,894 -254,1445 9,28 30,80 37,109 12,50 8,84 -15,116 -95,-218 -133,-270 -198,-524 -79,-310 15,-377 47,-645 -101,47 -281,196 -345,270 -212,245 -367,413 -451,761 -40,165 -32,372 -133,482 -447,485 -1134,115 -1349,73 -456,-90 -572,381 -665,519l-495 716c-212,267 -268,464 -592,619 -110,53 -116,30 -189,119 -393,480 -185,634 -304,866 -52,100 -61,78 -155,144 -11,178 43,1069 158,1209 63,76 286,77 404,60 297,-45 484,-108 610,-314 63,-102 139,-194 144,-317 6,-136 11,-336 1,-468 -100,-55 -173,-11 -205,-158 -23,-107 -12,-242 40,-307 97,-123 109,-46 101,-279 -10,-298 411,-712 634,-875 186,-136 508,-422 753,-382 188,30 985,305 1153,371 179,70 344,202 560,218 -63,-168 -157,-310 -182,-508 5,3 13,3 15,11l63 52c149,149 266,411 408,573 17,-29 61,-202 82,-255 98,-249 218,-532 530,-561 182,-17 315,114 476,-198 65,-127 71,-511 180,-555 150,88 64,400 28,537 -43,160 -203,285 -341,342 53,39 60,19 84,75 -252,25 -382,-197 -633,6 -148,119 -225,337 -268,554 -98,498 -204,776 -476,1165 -63,90 -107,161 -166,244 -60,84 -133,134 -196,215 -195,252 -42,475 -97,684 -30,115 -107,207 -105,294 1,73 31,282 42,372 22,179 12,613 77,741 122,93 338,51 478,11 389,-111 734,-578 684,-1135 -143,-24 -230,-99 -251,-235 -39,-252 71,-223 172,-323 43,-96 -185,-403 258,-1039 182,-261 235,-98 432,-266 203,-174 63,-287 166,-534 54,21 2,4 51,67 361,-237 1060,43 1211,-22 22,-9 520,-753 667,-766 -3,109 -263,435 -333,574 -97,193 -249,463 -540,365 -271,-91 -664,-199 -938,-38 -98,57 -39,59 -75,169 -41,125 -120,218 -167,324 323,73 863,396 1059,570 381,338 433,926 964,1458 425,427 1019,734 1650,808 -30,-640 -213,-693 -316,-1111 144,22 273,454 313,566 93,263 118,475 129,783 19,550 82,1113 144,1651 36,310 46,310 310,576 121,122 427,285 595,311 952,147 1278,-271 1461,-197 -39,53 -73,86 -119,123 -41,33 -34,21 -67,57 -37,39 -26,43 -64,77 239,58 336,787 398,1057 48,209 55,451 59,677 6,351 -22,364 -114,642 -108,326 94,345 154,536 26,83 -6,256 -41,318 -73,129 -76,-4 -131,238 -38,171 -326,819 -377,1120 216,73 399,175 656,175 280,0 515,-14 692,-160 411,-340 366,-349 412,-826 16,-160 -1,-249 -7,-411 -261,-131 -299,-277 -294,-563 6,-341 151,-462 -36,-727 -324,-458 -396,-777 -426,-1346 -23,-418 5,-1315 -96,-1642 -46,-149 -61,-173 -162,-268 -112,-105 -186,-53 -300,32 -456,337 -188,366 -317,558 -176,-124 152,-895 221,-1066 133,-330 370,-626 440,-995 189,-1003 93,-1497 -157,-2498 -288,-1153 -604,-967 -1147,-1522 -42,-43 -58,-46 -104,-82 -94,-74 -325,-349 -354,-365 -144,-78 -599,10 -1025,-411 -68,-67 -262,-307 -289,-414 218,63 391,638 1225,696 303,21 582,-41 819,-152 100,-47 222,-106 315,-156l330 -170c-768,29 -1264,-50 -1773,-594 -72,-77 -110,-146 -173,-217 -70,-79 -152,-118 -127,-259z"/>
   <path class="fil1" d="M26449 23151l-14 -6 14 6zm-14 -6c-108,-20 -60,-15 -129,-98 -31,-38 -52,-53 -84,-100 67,36 179,124 212,198zm2354 -979c22,-22 78,33 23,11 0,0 -57,24 -23,-11zm-9498 261c118,-58 176,-51 292,-128 91,-60 158,-139 278,-151 128,-12 251,6 348,-44 94,-49 219,-84 326,-96 132,151 309,375 261,619 -35,173 -148,172 -327,598l-271 631c-77,199 -251,860 -268,1099 -25,352 182,438 -67,720 -152,173 -258,517 -128,679 54,67 78,33 74,130 -26,599 -617,969 -1119,917 -821,-85 -667,-106 -476,-581l255 -669c59,-151 117,-69 199,-273 114,-282 -85,-438 199,-664 572,-456 620,-1011 555,-1720 -15,-162 -66,-283 -75,-401 131,-33 232,-36 292,-128 -65,10 -114,30 -171,38 -73,10 -120,0 -198,12 -122,19 -211,77 -340,69 -706,-42 -726,-123 -1003,-728 -79,-172 -193,-452 -206,-662 -26,-420 416,-890 563,-1167 152,-288 292,-579 402,-890 37,-104 64,-244 108,-327 49,65 108,240 162,335 50,89 141,210 204,288l230 263c174,207 619,498 865,613 284,133 440,153 766,222 -322,12 -596,503 -843,714l-440 341c-224,170 -217,81 -446,343zm9354 -2211l0 0zm-4228 -657c481,322 293,1083 62,1252l21 -636c0,-94 -13,-59 -9,-152 3,-66 -2,-83 -13,-154 -16,-113 -47,-203 -61,-309zm1232 -801l66 57c-90,-18 -38,-4 -66,-57zm350 2976c-179,-348 -316,-1674 -462,-2187 -63,-220 -159,-450 -269,-612 -104,-152 -93,-105 -236,-216 -210,-162 -565,-478 -865,-395 56,94 235,87 358,247 -160,-29 -167,-53 -353,-33 -59,-121 -86,-266 -134,-405 -42,-120 -134,-274 -154,-379 295,-98 400,-90 706,-10 225,59 425,156 597,265 314,198 694,568 810,914l-317 -298c-155,-161 -544,-321 -772,-419 -138,-59 -309,-118 -473,-127 343,260 564,24 1110,784l357 587c127,260 152,332 346,578 128,162 494,457 726,527 538,162 1320,-188 1445,-998 87,-564 12,-1088 -499,-1343 -238,-119 -358,-134 -437,-173 236,-107 1090,136 1340,831 172,478 84,911 -257,1263 -80,82 -226,198 -274,287 20,13 -9,4 45,23 179,61 463,-138 578,-228 173,-135 254,-304 397,-485 203,-258 386,-958 402,-1382 17,-462 -138,-1167 -413,-1372 -191,-143 -258,-264 -615,-281 -321,-15 -466,87 -718,158 140,-354 673,-492 1119,-342 386,130 643,441 821,781 609,1159 1009,2850 -30,3969 -52,56 -128,145 -180,210 -196,244 -680,537 -969,632 -490,161 -846,219 -1353,82 -247,-67 -420,-230 -537,-271 71,167 380,313 633,381 306,82 564,89 900,61 713,-58 954,-181 1513,-447l-258 231c-334,261 -530,387 -991,508 -887,233 -996,138 -1777,27 37,79 129,106 200,154 225,153 480,209 766,225 738,42 724,-89 1162,-140 -130,51 -259,134 -423,196 -436,163 -1184,281 -1626,148 -403,-121 -858,-499 -1064,-844 -125,-209 -134,-354 -248,-374 214,709 589,1120 1135,1478 193,126 513,282 553,310 -940,-30 -1491,-454 -1857,-997 -296,-439 -478,-1432 -344,-2044 22,-99 66,-185 63,-281 -158,172 -462,614 -786,722 36,-179 77,-182 171,-295 233,-280 362,-581 261,-976 -56,-218 -213,-423 -357,-504 -96,-54 -73,-2 -109,-118l-124 -513c191,0 318,70 409,167 281,300 267,416 364,784 69,261 5,278 -18,510 32,-31 10,-2 41,-52 159,-260 90,-671 89,-904 172,207 187,716 254,1023 81,370 122,664 244,1009 132,372 445,949 814,1095 76,30 430,142 442,149 -27,-41 -7,-6 -63,-32l-212 -121c-80,-46 -190,-124 -250,-181 -71,-69 -291,-428 -347,-535zm-3573 -6178l-44 -11 44 11zm-6970 -566c54,-42 3,-9 59,-35 -8,146 -20,259 -116,308 -91,47 -216,73 -331,77l388 -349zm-1036 -440l0 0zm6816 -1083c-63,107 -121,56 -183,1l183 -1zm-9464 -456c24,-24 117,35 26,8 -2,-1 -61,27 -26,-8zm-164 -21l103 0 0 21 -103 0 0 -21zm-123 -21l103 0 0 21c-15,0 -46,1 -60,-2 -40,-9 -22,-5 -43,-19zm5090 513c-128,-34 -532,-322 -722,-428l-120 -65c40,-54 349,-144 485,-275 54,-52 56,-121 66,-201 21,-164 59,-271 123,-390 57,-104 136,-222 229,-284 75,51 308,465 308,616 0,153 -60,489 -102,595 -104,259 -153,216 -267,431zm-7102 -2176l6 6c0,0 -8,-4 -6,-6zm-62 -21l44 11 -44 -11zm18238 680c22,-28 6,-11 35,-36l106 -61c391,-209 113,-156 505,-167 321,-9 1239,-156 1561,-231 246,-57 466,-149 680,-203 -77,85 -494,345 -645,425 -174,92 -119,81 -212,136 -1062,628 -2308,724 -3560,623 103,-48 463,-112 603,-151 266,-76 357,-74 646,-99 313,-27 993,-100 1245,-226l-964 -10zm-14869 964c-465,25 -1171,-108 -1612,-199 -1172,-241 -2027,-846 -2933,-1563 -164,-130 -336,-256 -484,-392 111,52 235,137 364,204 359,184 847,345 1237,465 497,154 500,117 920,208 46,10 578,433 638,493 -307,-9 -843,-164 -1142,-274 -116,-43 -209,-95 -316,-134 282,288 1092,580 1637,622 288,22 505,153 846,281l844 289zm17157 -2917l-40 24 40 -24zm-3021 775c1079,-430 1360,-602 2250,-1238 59,-42 423,-138 527,-160 -63,260 -689,630 -963,792 -97,57 -125,93 -204,145 -601,391 -1893,822 -2636,836l1025 -374zm2455 -519c506,-19 1258,-241 1713,-384 264,-82 515,-180 772,-274l743 -293c-621,508 -1210,965 -1943,1351 -575,303 -1748,880 -2393,875 69,-57 119,-100 195,-158 261,-194 245,-257 442,-297 302,-63 1077,-371 1280,-501 -284,30 -597,161 -1082,177l271 -496zm-21519 -1242l44 11 -44 -11zm3001 966c-313,-64 -1120,-533 -1445,-736 -88,-55 -374,-215 -436,-297 101,20 189,62 300,83 303,60 359,53 528,211 366,344 983,664 1052,738zm3182 -1094c131,-107 338,-235 572,-221l60 132c-354,0 -334,9 -632,89zm1699 -448l58 311c-73,-41 -73,-63 -135,-100l77 -211zm-267 -19c91,15 114,-44 173,171 -66,-29 -53,-22 -103,-77 -27,-30 -45,-47 -71,-94zm-1059 -104l76 142 -477 -117 401 -25zm-4527 2954c-299,-73 -983,-467 -1259,-622 -895,-503 -1459,-909 -2187,-1589 -153,-143 -840,-822 -902,-968l695 457c239,142 482,265 754,374 521,208 1235,434 1872,407 85,143 186,269 283,374 80,86 273,274 315,342 -245,-4 -871,-168 -1081,-254 -222,-92 -819,-422 -913,-431 24,39 2,9 31,39l546 339c536,345 1285,706 1927,865 152,38 204,97 300,172 262,207 550,385 856,539 208,105 1129,484 1322,503 -541,69 -1291,-262 -1718,-435 -255,-104 -513,-220 -758,-330 -306,-137 -436,-343 -662,-422l287 345c79,79 236,192 292,297zm5586 -2850c-82,-52 -239,-234 -319,-317 -121,-125 -242,-168 -150,-442l276 337c119,152 130,194 193,421zm390 401c-52,-44 -21,-294 -10,-376 18,-128 90,-223 167,-278 124,-88 425,-257 604,-284 -57,83 -156,138 -225,211l-473 595c-32,48 -37,87 -64,131zm12974 -363c-87,94 -305,140 -430,180l374 -239c217,-157 407,-277 609,-449 150,-128 168,-91 386,-149 115,-31 287,-101 383,-112 -39,28 -78,87 -122,127l-492 308c-185,98 -508,282 -707,334zm-15021 -1513c118,92 480,482 608,615l1522 1557c87,153 8,384 -72,465 -91,92 -346,145 -489,96 -126,-43 -199,-244 -260,-355l-1309 -2377zm16188 1745c646,-9 1495,-382 1967,-643 401,-221 787,-536 1135,-815 121,-97 205,-186 340,-286 -123,230 -376,563 -551,773 -334,403 -720,737 -1133,1042 -479,354 -1090,703 -1651,977 -157,77 -429,223 -599,270 35,-103 83,-187 122,-296 32,-91 53,-221 88,-302 35,-80 405,-187 555,-245 227,-88 917,-412 991,-591 -521,179 -755,465 -1658,591 31,-58 14,-28 58,-76 19,-21 29,-29 50,-52l286 -346zm-23419 -2055l0 0zm7118 4652c111,-192 -127,-370 -208,-581 -259,-677 -232,-751 -414,-1352 -407,-1343 -623,-1793 -1645,-2734 105,37 290,184 409,255 348,208 749,694 971,1041 733,1146 1133,2909 1608,3749 82,144 55,87 50,264 -11,428 214,477 330,649 119,175 231,199 336,341 139,188 240,165 477,90l428 318c227,163 305,174 447,264 -55,109 -405,371 -547,460 -318,-99 -709,-435 -935,-674 -540,-572 -998,-1029 -1416,-1745 -274,-468 -693,-721 -751,-837 206,-63 537,202 686,327 58,49 121,135 175,163zm2030 -3891c88,-28 75,-64 107,-170 82,-277 384,-520 620,-672 493,-318 1156,-273 1735,-178 123,20 285,54 381,141 -345,6 -430,-64 -778,59 -194,69 -437,161 -541,348 396,-43 186,-216 972,-71 125,23 190,-6 304,21 523,121 822,467 1161,752 74,62 120,98 193,176 340,368 670,1072 652,1597 -189,-289 -338,-557 -586,-800 -117,-114 -605,-544 -803,-572 51,59 74,58 128,119 265,302 491,653 687,1016 182,336 171,380 228,762 59,401 87,823 273,1181 108,208 254,692 676,784 134,29 342,8 449,-41 119,-54 156,-141 184,-291 32,-173 -29,-295 -112,-377 -118,-116 -201,-77 -366,-29 101,-337 414,-402 595,-117 320,502 35,1120 -529,1304 -155,50 -315,67 -491,50 -189,-18 -212,-116 -378,-156 51,236 290,518 493,631 383,213 644,-51 832,-141 -42,286 -170,343 -306,483 -213,221 -284,148 -622,160 67,147 72,133 186,227 -115,126 -232,96 -347,-20 -93,-94 -137,-201 -170,-361 202,52 234,58 455,26 112,-16 316,-30 395,-120 -250,-10 -281,-12 -464,-129 -255,-163 -503,-279 -613,-579 -59,-160 -107,-290 -97,-485 134,61 187,147 353,210 379,143 972,153 1120,-281 -145,105 -288,270 -581,237 -511,-59 -917,-741 -1066,-1195 -2,-5 -24,-73 -26,-76l-56 -73c40,460 272,787 76,1394 -171,530 -1011,483 -1044,373 -2,-7 -8,-7 -12,-11 122,5 226,5 333,-41 261,-111 434,-331 441,-654 11,-460 -64,-788 -401,-1068 35,-231 96,-297 92,-575 -3,-187 -14,-395 -120,-502 -24,364 93,697 -86,1083 -129,279 -329,539 -664,568 62,-108 211,-213 306,-372 29,-49 59,-87 88,-138 236,-417 219,-1085 107,-1528 -58,-230 -187,-426 -243,-658 224,90 506,574 601,897 54,183 98,404 138,601 20,96 73,606 89,640 128,-342 -78,-1067 -116,-1431 110,141 290,657 335,875 31,-434 -178,-1015 -344,-1344 -277,-548 -669,-1022 -1188,-1358 -269,-174 -296,-148 -659,-179 -264,-23 -501,17 -740,90 -95,29 -218,79 -306,124 -95,48 -170,113 -262,147 111,-186 380,-329 577,-427 715,-354 640,-174 991,-159 -448,-180 -774,-137 -1252,21 -139,46 -237,116 -343,153 34,-87 146,-233 207,-331 313,-510 776,-444 991,-565 -500,-9 -1043,250 -1376,570 -321,308 -611,841 -647,1308 -76,-136 -152,-296 -142,-488 18,-363 329,-1127 605,-1272 -102,280 -269,561 -273,905zm6616 7468c236,86 592,319 929,351l-764 -494c-200,-142 -187,-147 -349,-287l-344 -267c11,-11 598,-359 599,-359 279,-73 1616,668 2144,661 -658,-266 -1147,-686 -1823,-919 58,-77 125,-100 175,-191 93,33 366,60 502,89 115,25 744,253 822,305 265,178 833,450 1119,563 381,151 543,138 970,159 -132,88 -577,204 -771,248 -321,72 -611,89 -950,85 -959,-13 -1461,-279 -1752,-306l184 186c131,124 502,291 671,355 393,148 672,193 1100,276 -337,168 -1252,295 -1683,245 -877,-101 -1249,-587 -1345,-621 -25,141 56,179 127,259 63,71 101,140 173,217 509,544 1005,623 1773,594l-330 170c-93,51 -216,110 -315,156 -237,111 -516,174 -819,152 -833,-58 -1007,-633 -1225,-696 27,107 221,347 289,414 425,422 880,333 1025,411 29,16 260,291 354,365 45,35 62,39 104,82 543,556 859,369 1147,1522 251,1001 346,1495 157,2498 -70,369 -307,665 -440,995 -69,171 -397,942 -221,1066 130,-192 -139,-221 317,-558 114,-84 188,-137 300,-32 101,95 116,120 162,268 101,327 74,1224 96,1642 31,570 102,888 426,1346 187,264 42,385 36,727 -5,286 33,432 294,563 5,162 22,251 7,411 -47,477 -2,487 -412,826 -177,146 -412,160 -692,160 -257,0 -440,-102 -656,-175 52,-300 339,-949 377,-1120 55,-242 58,-109 131,-238 35,-62 67,-236 41,-318 -60,-191 -262,-210 -154,-536 92,-278 120,-291 114,-642 -4,-225 -11,-468 -59,-677 -62,-270 -159,-999 -398,-1057 38,-35 27,-38 64,-77 33,-35 26,-23 67,-57 45,-37 79,-69 119,-123 -183,-74 -509,344 -1461,197 -169,-26 -474,-189 -595,-311 -264,-266 -275,-267 -310,-576 -62,-538 -125,-1101 -144,-1651 -11,-308 -36,-519 -129,-783 -39,-111 -169,-544 -313,-566 103,418 286,471 316,1111 -631,-74 -1225,-381 -1650,-808 -530,-532 -583,-1120 -964,-1458 -196,-174 -736,-497 -1059,-570 48,-105 127,-199 167,-324 36,-110 -23,-112 75,-169 275,-161 668,-53 938,38 291,98 443,-173 540,-365 70,-140 331,-465 333,-574 -148,13 -646,757 -667,766 -151,64 -850,-215 -1211,22 -49,-63 3,-46 -51,-67 -102,247 38,360 -166,534 -197,168 -250,5 -432,266 -443,636 -214,943 -258,1039 -101,101 -210,71 -172,323 21,137 108,212 251,235 49,557 -295,1024 -684,1135 -140,40 -356,82 -478,-11 -65,-128 -55,-562 -77,-741 -11,-90 -41,-299 -42,-372 -1,-87 75,-178 105,-294 54,-209 -98,-432 97,-684 62,-80 135,-131 196,-215 60,-83 103,-154 166,-244 272,-389 378,-667 476,-1165 43,-217 120,-435 268,-554 252,-203 381,19 633,-6 -24,-56 -31,-36 -84,-75 138,-57 298,-182 341,-342 37,-136 122,-449 -28,-537 -108,44 -114,428 -180,555 -161,311 -294,181 -476,198 -312,29 -432,312 -530,561 -21,53 -65,226 -82,255 -142,-162 -260,-424 -408,-573l-63 -52c-3,-8 -10,-8 -15,-11 26,198 120,340 182,508 -216,-15 -381,-148 -560,-218 -169,-66 -965,-341 -1153,-371 -245,-39 -567,246 -753,382 -223,163 -644,577 -634,875 8,233 -4,156 -101,279 -51,65 -63,200 -40,307 32,147 105,103 205,158 10,133 4,332 -1,468 -5,123 -82,214 -144,317 -126,206 -313,269 -610,314 -118,18 -341,17 -404,-60 -115,-140 -169,-1031 -158,-1209 94,-66 103,-44 155,-144 120,-231 -88,-386 304,-866 73,-89 79,-66 189,-119 324,-155 380,-352 592,-619l495 -716c93,-138 209,-609 665,-519 215,43 902,412 1349,-73 102,-110 94,-317 133,-482 84,-349 238,-516 451,-761 64,-74 244,-223 345,-270 -32,268 -126,335 -47,645 65,254 103,305 198,524 23,-31 27,-66 15,-116 -7,-29 -28,-81 -37,-109 -174,-551 -73,-979 254,-1445 252,-359 381,-1064 24,-1421 -50,-50 -87,-70 -130,-140 460,-422 517,-30 833,-852 97,-253 75,-463 -67,-671 -115,-167 -193,-528 -273,-565 -36,223 190,558 240,745 77,288 -45,548 -166,758 -124,217 -15,149 -259,233 -252,87 -378,257 -552,434 -87,88 -140,146 -204,268 -317,599 -45,407 -368,617 -71,46 -241,130 -329,164 -283,108 -298,-73 -600,-287 -141,-100 -132,-156 -243,-249 -212,-179 -113,-548 -39,-759 83,18 35,27 120,41 -47,-306 49,-724 115,-1035 166,-780 -27,-797 142,-988 25,-28 9,-13 36,-35 113,251 545,284 807,101 132,-92 166,-179 174,-382 9,-236 -52,-284 -163,-391 53,-159 442,-522 636,-530l247 35c6,1 12,3 17,5 5,1 13,4 17,6l33 13c-55,134 -111,164 -144,342 119,-52 190,-243 255,-345 89,-141 130,-203 257,-298 132,-99 575,-317 773,-330 -27,134 -94,220 -163,325 -133,204 -144,519 -258,727 -78,142 -177,131 -245,266 185,-11 322,-201 404,-332 226,0 537,294 654,401 331,302 659,1071 485,1559 -100,279 -227,404 -422,588 -6,6 -8,56 -26,27 -2,-4 -9,9 -13,14 279,-4 395,4 582,-140 118,-91 245,-217 304,-391 206,109 333,855 286,1089 -53,269 -246,504 -521,528 -142,13 -186,-33 -295,-58 29,61 6,29 57,84 27,29 39,38 65,57 42,31 92,56 151,76 136,48 263,35 409,16 218,-29 357,-95 494,-225 49,-46 82,-48 115,-91 10,162 -21,292 -2,480 39,387 174,824 420,1090 -46,56 -41,6 -86,88 208,51 279,2 440,-106 281,-188 791,-581 1006,-821 243,-271 555,-550 774,-848 123,-167 187,-353 290,-511 874,-1340 411,-2535 1087,-3757 316,-571 449,-759 891,-1141l438 -362c65,-47 150,-160 208,-138 25,18 61,16 -26,135 -181,250 -453,541 -567,830 -77,193 -166,347 -237,562 -272,818 -213,1309 -411,1970 -76,254 -86,377 -219,582 -62,96 -280,382 -279,491 43,-19 43,-80 274,-209 277,-154 607,-487 973,-459 -31,72 -188,243 -243,306 -177,201 -336,410 -472,637 -71,119 -166,200 -236,318 -244,411 -308,644 -625,1037 -45,55 -85,97 -131,156 -52,67 -50,86 -118,149 -63,60 -82,85 -136,152 -191,241 -451,483 -704,671 -108,80 -225,131 -354,201 -123,66 -223,134 -354,200 -320,164 -425,256 -685,423 -170,109 -297,106 -339,202 52,21 46,17 118,-9 54,-19 64,-27 124,-43 81,290 583,932 762,1073 -115,-155 -451,-910 -482,-1169 329,-164 280,-121 613,48 106,54 513,267 556,326zm9011 -8722l6 6c0,0 -8,-4 -6,-6zm41 -21l6 6c0,0 -8,-4 -6,-6zm-3814 1165c117,-72 242,-116 367,-180 298,-151 750,-460 973,-668 439,-410 244,-206 664,-424 238,-123 484,-272 698,-380 -108,146 -436,400 -568,530 -384,377 -1608,1072 -2133,1122zm-3040 2138c51,-488 124,-509 502,-829 718,-607 1666,-810 2566,-1108 202,-67 60,-59 216,-113 704,-241 1260,-533 1738,-930l695 -639c257,-251 394,-445 592,-662l-307 906c-417,1034 -761,1475 -1689,2129 -294,208 -1066,682 -1425,812 -409,148 -739,239 -1162,419 -157,67 -297,132 -438,198 -142,66 -337,119 -384,254 156,-6 508,-179 664,-242 1395,-560 2874,-876 4081,-1769 94,-70 150,-134 242,-200 -29,124 -320,718 -381,800 -205,272 -593,677 -866,899 -111,90 -205,158 -327,248 -219,160 -460,313 -716,454 -632,349 -1755,832 -2492,1019l-694 171c-92,12 -168,1 -225,52 62,23 682,17 796,12 231,-11 483,-40 712,-76 1362,-217 1817,-495 2865,-1181 220,-144 335,-278 439,-351l-253 475c-130,192 -32,216 -491,721l-524 462c-531,372 -1355,766 -2013,903 -453,95 -885,138 -1352,127 -191,-5 -253,2 -411,55 47,50 144,52 233,63 87,11 176,16 261,24 933,83 1622,193 2586,232 179,7 351,15 533,14 184,-1 345,-32 504,-33 -81,41 -176,108 -278,157 -115,55 -193,89 -296,134 -1094,478 -2431,752 -3637,577 -754,-109 -946,-321 -1308,-413 94,-185 185,-201 315,-211 1042,-87 1323,162 2448,120 -101,-56 -932,-180 -1145,-237 -637,-170 -503,-140 -1173,-204 25,-64 172,-207 222,-277 74,-103 127,-198 193,-300 84,-129 177,-115 341,-152 135,-31 264,-64 401,-92 593,-121 1533,-93 1816,-153 -298,-150 -1874,-69 -2272,-54 162,-294 157,-236 284,-436 108,-170 157,-280 339,-379 319,-173 657,-315 1003,-455 505,-205 1614,-627 2114,-787 -162,9 -591,136 -772,181 -259,64 -485,138 -746,218l-1399 491c34,-24 164,-229 146,-314 -23,-112 -179,-155 -329,-115 -264,69 -426,212 -621,330 48,-242 57,-292 219,-446 752,-714 2027,-1294 3015,-1615 -529,41 -1820,456 -2347,723 -120,60 -224,122 -325,188 -57,37 -95,60 -145,102 -52,44 -84,79 -135,109zm-15832 -315c-302,124 -1245,-514 -1432,-648 -662,-477 -1133,-943 -1621,-1560 -298,-377 -1117,-1573 -1204,-1945 325,450 584,734 1006,1075 80,64 135,120 222,188 598,469 1353,958 2091,1214 244,85 386,146 657,121 112,228 650,910 677,974 -613,-108 -2006,-822 -2465,-1237l-306 -309c-87,-111 -166,-222 -288,-309 193,513 1192,1257 1648,1556l791 482c76,51 218,311 225,399zm3644 -231c-19,-91 -86,-108 -174,-127 -202,-44 -418,-124 -604,-196 -1012,-388 -1274,-430 -2120,-1144 -560,-473 -602,-553 -1055,-1120 -312,-390 -603,-778 -749,-1406 61,46 74,83 128,137 658,658 1611,1087 2454,1466 242,109 497,196 744,304 239,104 471,239 726,320 141,44 187,151 274,260 195,241 526,640 607,938 -178,-345 -1594,-852 -2067,-1078 -88,-42 -217,-118 -302,-143 50,33 44,42 96,82l299 194c139,86 267,168 401,256 600,392 1040,611 1572,1096 63,57 105,105 165,163 106,103 239,592 260,737 -777,-315 -485,-180 -1290,-305 -224,-35 -451,-77 -665,-131 -166,-42 -447,-159 -586,-181 547,242 1076,574 1675,712 329,76 604,180 885,326 90,47 111,51 145,163 66,218 178,431 239,642 -103,-41 -183,-117 -306,-166 -286,-113 -604,-61 -314,274l224 210c-112,-23 -221,-81 -368,-106 -146,-25 -290,-24 -437,-37l-827 -109c432,185 987,346 1463,479 273,76 422,228 623,362 142,94 323,393 409,543 -559,164 -1400,12 -1969,-58 5,3 11,6 14,8l490 153c178,47 347,88 528,127 483,103 711,109 1192,83 49,93 126,163 185,247 -63,196 -323,399 -548,480 -358,129 -557,34 -902,66 51,4 139,44 208,58 240,49 504,57 742,7 154,-33 279,-82 405,-148 132,-70 211,-161 318,-219 87,82 151,180 274,262 -2,245 -203,468 -341,556 -90,57 -538,220 -644,219 358,31 910,-85 1134,-387l91 -116c139,137 238,211 420,341 16,168 -72,327 -151,402 -80,75 -260,161 -328,247 224,-36 438,-192 567,-357 48,-61 66,-115 109,-180l169 74c-42,89 -87,141 -129,214 -39,69 -55,170 -107,222 -201,200 -634,337 -922,367 -145,15 -422,46 -568,8 -46,-12 -28,-8 -45,-22 138,-67 220,-92 341,-172 179,-118 723,-532 716,-741 -71,1 -224,133 -314,178 -119,59 -234,108 -371,144 -293,78 -624,99 -947,83 -311,-16 -576,-83 -845,-186 -149,-57 -632,-224 -714,-289 108,14 197,53 315,65 397,44 2040,-65 2089,-542 -278,108 -423,215 -783,225 -329,8 -601,-8 -912,-71 -431,-87 -1133,-345 -1406,-559 541,61 807,167 1415,123 277,-20 1149,-176 1046,-454 -133,-55 -249,212 -1104,-45 -341,-102 -652,-221 -968,-346 -343,-136 -569,-288 -832,-481 -134,-98 -628,-503 -689,-605l726 321c745,327 1514,510 2328,291 90,-24 116,-28 96,-129 -134,-18 -290,3 -439,-16 -640,-79 -1742,-566 -2219,-897 -188,-131 -350,-256 -513,-391 -292,-242 -1172,-1231 -1237,-1412 116,52 272,194 386,273 391,272 797,496 1236,695 280,127 628,257 955,338 185,46 345,70 545,94 119,14 512,71 560,-49 -52,-70 -281,-86 -384,-110 -368,-87 -726,-203 -1051,-365 -871,-434 -1501,-982 -2080,-1738 -111,-145 -745,-1015 -778,-1127 62,42 148,122 208,178 463,431 985,771 1581,1046 528,243 1152,393 1739,521 172,38 449,145 585,83zm17853 -3843c229,-156 710,-527 911,-585 -74,219 -287,636 -492,736 -210,103 -611,299 -826,352l408 -503zm450 -598l0 0zm21 -21l-21 21 21 -21zm-5537 2907c16,-48 166,-325 204,-378 205,-285 696,-553 1014,-711 339,-168 1270,-565 1623,-696 593,-220 1079,-425 1595,-723 450,-260 1019,-662 1317,-968 -167,294 -971,1326 -1177,1580 -111,137 -215,235 -334,364 -115,126 -208,227 -331,347 -113,110 -232,218 -369,329 -627,510 -1037,696 -1784,986 -438,170 -746,175 -1238,487 -96,61 -136,44 -232,96 -541,291 -613,530 -763,606 22,-408 210,-539 486,-841 108,-119 217,-219 350,-328l1233 -758c134,-86 261,-174 398,-259l365 -211c43,-32 21,-14 46,-44 -259,54 -990,396 -1261,514 -195,85 -389,201 -586,297 -338,164 -307,174 -557,312zm4660 248c175,-213 341,-408 489,-709 56,-113 45,-100 175,-133 70,-18 148,-38 223,-64 164,-57 263,-112 412,-183 883,-418 1524,-718 2282,-1289 569,-428 1015,-968 1482,-1494 83,-93 175,-247 259,-331 -74,330 -239,618 -379,888 -242,466 -718,1054 -1048,1457 -717,877 -1671,1822 -2684,2345l-851 399c28,-78 218,-414 310,-653 177,-460 15,-237 458,-508 208,-127 399,-245 583,-382l531 -418c-403,224 -861,500 -1343,687l20 -124 -80 112c-35,47 -44,59 -97,87l-744 311zm-21631 -394c45,67 117,160 146,243 -703,-83 -1725,-932 -2165,-1487 -175,-220 -355,-430 -519,-692 -313,-499 -568,-1020 -810,-1613 -131,-320 -590,-1478 -616,-1771 110,215 304,437 436,618 191,263 767,937 983,1131 92,82 188,156 289,245l1397 1231c116,101 164,160 269,265 160,161 99,48 219,315 150,336 354,502 418,649 -379,-68 -1539,-930 -1903,-1299l-502 -525c43,139 351,457 441,565 231,278 524,464 780,739 346,370 1020,825 1486,1038 58,26 139,53 183,85l365 374c174,166 908,746 1123,880 -171,-42 -526,-250 -697,-342 -512,-276 -770,-510 -1208,-845 -107,-82 -427,-474 -524,-482l411 678zm22977 -2761c177,-82 418,-227 580,-326 795,-487 855,-572 1560,-1108 339,-258 694,-504 1023,-763 172,-135 319,-262 479,-403 129,-114 323,-365 445,-437 -135,331 -699,1272 -916,1566 -180,243 -361,457 -539,693 -678,895 -860,1126 -1837,1878 -232,179 -496,331 -712,519 -197,173 -516,416 -763,484 27,-110 89,-230 128,-339 103,-282 209,-697 355,-959 44,-79 169,-146 250,-201 83,-56 171,-113 255,-176 175,-131 333,-235 489,-364 -121,37 -679,425 -896,489 43,-200 81,-329 99,-554zm-470 0c15,-57 76,-124 127,-201 47,-71 83,-124 131,-197 119,-179 649,-1020 706,-1264 -54,36 -87,96 -132,155 -55,73 -76,105 -140,168 -348,343 -453,585 -880,926 -442,353 -936,666 -1468,933l-412 184c-150,59 -267,115 -424,171 -706,251 -1625,656 -2298,1027 -65,36 -131,91 -199,109 52,-99 123,-281 123,-431 -256,0 -149,2 -416,199 -76,56 -113,103 -178,150 -70,50 -137,90 -206,143 -569,437 -693,674 -1079,1261 -46,70 -98,147 -131,218l-193 484c-52,153 -76,393 -106,571 -97,577 -90,1144 -317,1695 -212,514 -47,310 -396,938l-244 434c-137,211 -90,185 -278,399 -108,123 -220,234 -354,323 2,-102 21,-187 0,-287 -77,41 -162,142 -250,201 -437,299 -827,50 -899,-222 155,36 381,18 519,-15 155,-38 444,-183 549,-313 90,-112 153,-228 213,-362 117,-263 115,-883 -340,-1030 -186,-60 -310,13 -401,125 -114,140 -129,283 -129,467l62 0c27,-103 135,-182 267,-185 104,70 219,208 157,423 -55,186 -449,304 -758,-109 -188,-252 -289,-531 -375,-836 -70,-247 -99,-505 -140,-763l-103 -513c-23,-106 -55,-153 -74,-234 116,78 275,366 337,507 2,4 5,10 6,14 14,36 -10,85 40,108 122,55 52,-262 49,-302 -33,-435 -99,-797 -303,-1175 -56,-103 -96,-188 -149,-282 -183,-320 -335,-418 -601,-651l-238 -193c-227,-182 -889,-530 -1173,-530l0 -21c688,0 581,105 801,123 -7,-87 -41,-94 -97,-149 -243,-239 -600,-311 -944,-351 -80,-9 -117,3 -214,-9 -99,-12 -144,-24 -243,-26 -594,-10 -942,143 -1353,476 -50,40 -101,90 -147,120 33,-143 88,-289 166,-410 28,-42 96,-85 33,-111 -59,-24 -24,-1 -73,27l-41 23c-49,26 -82,39 -129,77 -153,123 -260,276 -352,448 -154,290 -271,551 -301,910 -47,-54 -107,-91 -150,-158 -79,-123 -201,-136 -236,18 -11,48 -21,97 -24,140 -117,-31 -247,-226 -337,-320 -296,-313 -657,-617 -924,-944 -22,-26 -22,-33 -49,-55 -127,-101 -187,14 -72,217 42,75 73,136 118,211 88,148 678,1165 710,1302 -177,0 -283,13 -430,43 -61,12 -124,23 -185,41 -78,23 -124,22 -145,101 55,27 399,30 518,57 152,35 298,67 434,141 3,2 9,5 13,7 -251,21 -741,287 -759,513 249,-21 493,-306 901,-162 138,49 190,193 255,319 17,33 40,68 52,93 51,101 -23,198 -74,310 -26,58 -48,429 -47,528 2,251 -99,741 -135,1015 -20,154 25,129 -64,223 -54,57 -89,116 -109,199l-377 -813 -456 -1289c-60,-157 -113,-284 -170,-426 -55,-139 -116,-255 -176,-399 -167,-401 -369,-799 -625,-1141 -199,-265 -427,-560 -722,-735 -181,-107 -351,-246 -533,-350 -269,-154 -572,-121 -81,307 3,3 8,7 11,9l50 52c-127,-30 -403,-188 -551,-249 -720,-298 -1527,-613 -2179,-1044 -233,-154 -506,-289 -703,-487l-492 -534c-47,-48 -52,-69 -118,-87 0,102 58,267 90,362 30,92 93,258 95,356 -52,-35 -70,-82 -117,-129 -145,-146 -365,-312 -524,-461l-1058 -933c-180,-157 -593,-570 -755,-764l-323 -395c-416,-554 -598,-855 -904,-1457l-55 -88c0,273 121,607 185,862 90,354 218,645 315,978 263,899 643,1764 1130,2565 380,625 1026,1222 1079,1302 -147,-39 -822,-564 -1009,-715l-333 -303c-5,-4 -18,-15 -22,-19 -8,-7 -14,-12 -23,-18 -36,-30 -44,-35 -77,-67l-777 -947c-51,-69 -70,-120 -141,-167 62,268 267,906 393,1146 479,912 779,1251 1378,1968l666 648c180,176 682,541 888,652 59,32 108,62 168,99 63,38 122,54 160,106 -402,-33 -1457,-530 -1818,-768 -402,-265 -316,-137 -773,-541 -55,-49 -79,-88 -139,-128 16,68 43,113 78,168 184,287 192,388 476,756l364 395c46,46 78,77 124,123l99 106c3,3 7,7 10,10l946 819c102,69 186,137 287,205l613 393c103,62 207,127 308,185l984 535c-222,-5 -1279,-452 -1453,-558l-467 -272c-160,-105 -628,-522 -727,-545 30,130 565,614 693,744 52,53 64,87 114,133 38,35 27,18 66,57l858 723c230,196 891,645 1163,787 497,259 866,411 1422,528l406 87c-247,0 -756,-123 -924,-123 40,55 61,51 123,82 116,58 449,316 896,541 251,126 912,383 1259,383l0 21c-364,0 -471,61 -973,-12 -80,-12 -254,-29 -320,-29l0 41c94,8 459,256 590,314 271,119 273,163 639,284 402,134 784,164 1234,141 144,-7 269,-62 410,-62 -4,3 -9,3 -11,9 -23,84 -515,248 -579,263l-744 179c166,0 368,45 497,78 163,42 315,64 491,83 273,30 527,17 792,-23 79,-12 176,-50 252,-56 -32,48 -88,83 -139,128 -215,187 -153,110 -425,152 -216,33 -342,-157 -739,-42 -86,25 -151,29 -200,87 -85,102 -139,262 -176,378 -75,239 -429,642 -593,843 -159,195 -263,362 -487,498 -191,116 -172,45 -373,346 -246,370 -77,635 -213,792 -49,57 -35,22 -76,67 -127,140 8,1024 92,1249 102,271 836,123 902,93 265,-119 364,-269 498,-509 58,-103 42,-212 41,-348 -2,-498 -7,-295 -166,-410 -43,-31 -71,-140 -58,-222 20,-126 66,-87 101,-188 96,-276 -144,-341 400,-749 117,-88 220,-156 334,-241 111,-82 216,-140 322,-232 77,-67 67,-96 193,-96 298,1 958,366 1262,465l428 146c129,37 164,17 238,111 39,49 76,72 71,131 -3,34 -41,184 -54,231 -35,129 -131,268 -193,381 -280,509 -670,606 -643,1060 15,264 75,212 -35,458 -59,133 -22,362 3,498 31,162 26,372 49,526 28,189 -42,536 559,408 90,-19 41,-13 108,-36 88,-31 123,-28 200,-67 106,-54 153,-119 230,-201 27,-29 45,-42 71,-72 49,-57 72,-112 112,-175 76,-117 153,-242 176,-399 9,-65 9,-214 3,-281 -26,-289 -206,-26 -278,-298 -56,-209 160,-195 177,-383 12,-135 -167,-376 197,-869 151,-205 251,-126 569,4 362,147 652,195 904,533 188,253 168,347 85,672 -61,238 -161,397 -261,601 -148,303 -88,238 -296,566 -319,505 -566,836 -349,1465 47,135 130,257 198,377l157 274c59,91 94,174 189,242 197,142 472,167 717,135 72,-9 160,-36 251,-36 2,92 25,117 46,201 76,303 124,757 34,1070 -208,725 -609,628 -683,1063 -21,126 2,104 6,213 9,209 -98,244 -175,336 -34,41 -322,798 -458,1021 -45,74 -36,255 35,308 4,3 65,32 83,40 30,13 55,25 85,38 59,26 118,45 186,60 147,32 255,57 449,41 585,-48 980,-277 1075,-916 7,-47 28,-150 6,-224 -44,-145 -189,-113 -124,-345 142,-502 397,-312 284,-903 -49,-256 152,-954 246,-1236 49,-148 88,-212 145,-348 72,-172 134,-349 244,-495 163,-218 407,-261 104,-896 -219,-459 -388,-154 -664,-219 50,-74 383,-333 457,-406 39,-38 51,-73 85,-120 69,-93 255,-269 369,-293 92,-19 93,19 97,97 3,66 -2,159 -3,229 -1,158 24,263 38,393 38,349 -56,889 105,1209 134,267 256,427 518,569 18,10 52,26 67,36 220,138 119,81 400,154 124,32 236,31 379,53 167,25 634,-28 771,-94 98,185 174,288 235,504 59,208 108,387 141,619l77 664c14,253 -152,336 -166,594 -22,415 171,293 187,554 3,54 6,130 -13,174 -47,107 -94,115 -186,389 -65,194 -143,367 -197,563 -37,135 -66,309 -116,438 -29,74 -44,54 -64,141 95,100 566,247 718,247 200,-1 396,17 574,-64 74,-34 149,-59 219,-109l176 -112c329,-272 421,-1004 310,-1280 -74,-182 -202,-83 -263,-373 -48,-226 71,-386 66,-564 -7,-264 -156,-462 -292,-667 -279,-421 -171,-909 -242,-1379 -16,-107 -8,-185 -11,-297l-56 -929c-46,-236 -217,-536 -493,-483 -74,14 -140,78 -231,99 36,-74 50,-157 89,-240 37,-79 65,-144 108,-221 47,-84 68,-130 120,-209 46,-69 94,-144 129,-220 200,-431 47,-177 324,-333 236,-133 231,-196 381,-296 -104,446 23,965 173,1366 142,380 206,465 468,763l150 158c428,354 450,362 974,545 60,21 91,29 164,41 215,36 506,71 734,36 172,-26 342,-52 510,-105l151 -54c-419,0 -558,182 -1061,-68 -187,-93 -638,-367 -745,-527l340 153c70,28 112,36 186,60 426,142 1138,8 1566,-134 203,-67 507,-225 654,-372 75,-75 223,-179 231,-282 -146,12 -267,287 -1274,368 -88,7 -176,1 -254,-11 -118,-17 -155,7 -237,-50 601,0 924,-96 1428,-296 236,-94 149,-55 325,-188 142,-107 290,-193 418,-321 97,-97 143,-152 223,-270 60,-90 143,-257 152,-362 -109,80 -33,188 -557,470 -145,78 -593,249 -798,249 61,-53 132,-66 219,-109 250,-125 574,-341 774,-539 3,-3 7,-7 10,-10l382 -542c362,-674 447,-1052 363,-1800 -24,-215 -42,-417 -90,-608 -61,-246 -141,-571 -236,-811 -193,-489 -71,-289 -355,-692 -218,-309 -391,-484 -738,-658 -151,-76 -422,-100 -606,-70 -412,67 -526,158 -726,485 -36,59 -42,50 -44,141 150,79 308,-79 596,-102 257,-20 479,-38 669,69 235,132 370,475 435,735 77,311 102,812 33,1092 -53,214 -125,388 -202,578 -76,190 -114,326 -274,506 -98,112 -270,346 -415,385 123,-184 293,-362 326,-577 15,-98 37,-183 43,-265 82,-1064 -1220,-1758 -1918,-1282 -60,41 -54,22 -72,92 113,26 49,14 160,-23 68,-23 135,-20 231,-19 249,3 730,239 837,580 106,339 34,874 -166,1119 -75,91 -147,184 -237,256 -191,151 -395,244 -728,188 -143,-24 -254,-60 -363,-109 -203,-91 -402,-262 -521,-443 -229,-346 -219,-402 -448,-743 -36,-54 -65,-98 -98,-148 118,10 225,167 283,231 178,198 108,250 231,283 -6,-263 -174,-622 -287,-780l-123 -164c-3,-3 -7,-8 -9,-11l-242 -250c-248,-232 -909,-528 -1307,-561 -224,-18 -281,-27 -494,22l-956 -850c-56,-43 -96,-81 -132,-135 303,-25 666,-258 997,-399 90,-38 162,-64 253,-96l523 -174c162,-41 124,-41 279,-28l-110 -54c-406,-87 -959,205 -1725,-61 -127,-44 -380,-167 -443,-254 70,6 262,83 360,112 645,184 1433,35 2029,-205 122,-49 215,-95 337,-135 106,-35 289,-55 352,-141 -566,-13 -649,79 -1337,-121l-675 -249 437 97c195,33 790,85 988,55 129,-19 247,-11 482,-52 337,-60 1036,-293 1345,-523 59,-43 101,-73 176,-91l0 -62c-279,23 -150,103 -657,103 -675,0 -994,-181 -1594,-479 -27,-14 -47,-22 -69,-34l-61 -41c553,0 753,67 1381,-14 657,-85 950,-149 1521,-347 215,-75 528,-242 790,-339 169,-63 335,-164 475,-264 37,-27 68,-44 111,-74 96,-67 292,-178 320,-255 -275,0 -314,152 -924,185 -205,11 -356,-22 -533,-21 -199,1 -335,-20 -534,-20l0 -21c914,0 1842,-233 2578,-686l698 -411c220,-132 439,-286 620,-468 61,-62 145,-111 169,-200 -153,13 -187,131 -557,244 -279,85 -795,247 -1065,269l117 -68c52,-22 87,-35 130,-55 697,-313 1517,-738 2107,-1218 74,-60 127,-108 203,-167 76,-60 133,-103 199,-171 192,-194 277,-261 452,-471 90,-108 233,-190 261,-293 -76,37 -92,33 -165,82 -54,36 -102,71 -160,107 -218,138 -1675,607 -1936,691 -100,32 -747,205 -860,208 22,-19 -7,0 35,-26l615 -309c521,-281 894,-500 1388,-870 55,-41 89,-70 138,-109 242,-189 583,-501 777,-742 76,-94 148,-169 223,-270 290,-389 397,-580 624,-1018 117,-224 259,-390 264,-619 -59,43 -133,185 -179,252l-117 150c-64,86 -91,114 -160,189l-369 349c-492,402 -881,718 -1454,1051 -138,80 -578,257 -756,312 -67,20 -221,74 -290,79 61,-53 141,-76 215,-113l633 -352c555,-330 1155,-885 1610,-1346l764 -878c93,-120 200,-246 287,-370 232,-332 305,-414 530,-784l453 -861c83,-203 91,-362 137,-520 46,-157 70,-395 70,-586 -94,69 -205,589 -724,1123l-1158 1161c-92,74 -166,139 -265,207 -256,175 -242,182 -566,378 -130,78 -1046,592 -1228,640 44,-65 412,-291 525,-358 325,-194 1201,-945 1446,-1264 42,-55 81,-98 130,-158l1394 -1932c321,-581 339,-594 582,-1204 55,-139 153,-294 153,-463 -96,26 -77,66 -124,143 -66,109 -305,299 -405,396l-2738 2126 -668 420c-122,73 -225,136 -349,205l-704 383z"/>
   <path class="fil2" d="M24542 9439c51,-29 82,-65 135,-109 50,-41 88,-65 145,-102 101,-66 205,-128 325,-188 528,-266 1819,-681 2347,-723 -989,321 -2263,902 -3015,1615 -162,154 -171,204 -219,446 195,-118 357,-261 621,-330 151,-39 306,4 329,115 18,84 -112,290 -146,314l1399 -491c261,-79 487,-154 746,-218 182,-45 611,-172 772,-181 -500,161 -1609,582 -2114,787 -346,141 -684,282 -1003,455 -182,99 -231,209 -339,379 -126,199 -122,141 -284,436 398,-15 1974,-95 2272,54 -284,60 -1223,32 -1816,153 -137,28 -265,61 -401,92 -164,37 -257,23 -341,152 -66,102 -119,196 -193,300 -50,70 -197,213 -222,277 670,65 536,34 1173,204 213,57 1044,181 1145,237 -1125,42 -1406,-207 -2448,-120 -129,11 -220,27 -315,211 362,92 554,304 1308,413 1206,175 2543,-99 3637,-577 103,-45 181,-78 296,-134 101,-49 197,-116 278,-157 -159,0 -320,32 -504,33 -182,1 -355,-7 -533,-14 -964,-39 -1653,-149 -2586,-232 -85,-8 -174,-13 -261,-24 -89,-11 -186,-13 -233,-63 158,-53 221,-59 411,-55 467,11 899,-33 1352,-127 657,-137 1482,-531 2013,-903l524 -462c459,-505 361,-529 491,-721l253 -475c-104,74 -219,207 -439,351 -1048,686 -1503,964 -2865,1181 -228,36 -480,65 -712,76 -114,6 -733,11 -796,-12 57,-52 133,-41 225,-52l694 -171c737,-187 1860,-670 2492,-1019 256,-141 496,-294 716,-454 122,-89 217,-158 327,-248 273,-222 661,-627 866,-899 61,-81 352,-676 381,-800 -92,66 -148,130 -242,200 -1207,893 -2686,1209 -4081,1769 -156,62 -507,236 -664,242 47,-135 243,-188 384,-254 141,-66 281,-131 438,-198 422,-180 752,-271 1162,-419 360,-130 1131,-604 1425,-812 928,-655 1272,-1095 1689,-2129l307 -906c-198,217 -335,411 -592,662l-695 639c-478,396 -1035,689 -1738,930 -157,54 -14,46 -216,113 -900,298 -1848,501 -2566,1108 -378,320 -452,340 -502,829z"/>
   <path class="fil2" d="M12354 8893c-136,62 -414,-46 -585,-83 -587,-129 -1212,-278 -1739,-521 -596,-275 -1118,-615 -1581,-1046 -60,-56 -146,-136 -208,-178 33,112 667,982 778,1127 579,756 1208,1304 2080,1738 326,162 683,278 1051,365 103,24 331,40 384,110 -48,120 -441,63 -560,49 -200,-24 -359,-48 -545,-94 -327,-81 -675,-211 -955,-338 -438,-199 -845,-423 -1236,-695 -114,-79 -270,-221 -386,-273 65,181 946,1170 1237,1412 162,135 324,260 513,391 477,332 1578,819 2219,897 149,18 305,-2 439,16 20,102 -6,105 -96,129 -814,219 -1583,36 -2328,-291l-726 -321c61,102 555,506 689,605 263,193 489,345 832,481 316,126 628,244 968,346 855,257 971,-10 1104,45 103,278 -769,434 -1046,454 -608,45 -874,-62 -1415,-123 273,215 975,473 1406,559 311,63 583,79 912,71 360,-9 505,-117 783,-225 -49,477 -1692,585 -2089,542 -118,-13 -206,-51 -315,-65 81,65 564,232 714,289 270,103 534,170 845,186 322,17 654,-4 947,-83 137,-37 252,-85 371,-144 90,-45 243,-176 314,-178 7,209 -537,623 -716,741 -122,80 -203,105 -341,172 17,14 -1,10 45,22 146,38 423,7 568,-8 288,-30 722,-167 922,-367 52,-52 68,-153 107,-222 42,-73 88,-125 129,-214l-169 -74c-43,66 -61,119 -109,180 -130,165 -343,321 -567,357 69,-86 249,-172 328,-247 79,-75 167,-233 151,-402 -182,-130 -280,-204 -420,-341l-91 116c-224,302 -776,418 -1134,387 106,1 554,-162 644,-219 138,-88 339,-311 341,-556 -123,-82 -187,-180 -274,-262 -107,58 -186,149 -318,219 -126,67 -251,116 -405,148 -238,50 -502,42 -742,-7 -69,-14 -156,-53 -208,-58 344,-32 544,63 902,-66 225,-81 485,-284 548,-480 -59,-84 -136,-154 -185,-247 -480,26 -709,19 -1192,-83 -181,-39 -350,-79 -528,-127l-490 -153c-3,-2 -10,-5 -14,-8 568,70 1410,221 1969,58 -86,-150 -267,-449 -409,-543 -201,-134 -350,-286 -623,-362 -476,-133 -1031,-294 -1463,-479l827 109c147,13 291,12 437,37 147,25 255,83 368,106l-224 -210c-290,-335 28,-386 314,-274 122,48 203,125 306,166 -61,-211 -172,-425 -239,-642 -34,-112 -55,-116 -145,-163 -282,-146 -556,-250 -885,-326 -599,-138 -1128,-470 -1675,-712 139,22 420,139 586,181 214,54 441,96 665,131 805,125 513,-10 1290,305 -20,-145 -153,-635 -260,-737 -60,-58 -102,-106 -165,-163 -532,-485 -972,-704 -1572,-1096 -134,-88 -262,-170 -401,-256l-299 -194c-52,-40 -46,-49 -96,-82 85,25 214,101 302,143 473,226 1889,733 2067,1078 -81,-298 -412,-696 -607,-938 -88,-109 -133,-216 -274,-260 -255,-80 -487,-215 -726,-320 -247,-108 -502,-194 -744,-304 -843,-380 -1796,-808 -2454,-1466 -55,-55 -67,-92 -128,-137 146,628 437,1016 749,1406 453,567 495,647 1055,1120 846,714 1108,756 2120,1144 186,72 402,151 604,196 88,19 155,37 174,127z"/>
   <path class="fil2" d="M27512 21051c22,14 8,10 49,18 112,23 582,-61 683,-86 1213,-298 1718,-1244 1643,-2486 -62,-1016 -159,-779 -338,-1321 476,440 522,2150 354,2902 -211,945 -870,1496 -1813,1621 176,94 626,88 853,89 -31,33 3,4 -41,35 -192,133 -801,277 -1161,253 -433,-29 -772,-227 -1006,-444 -254,-235 -431,-479 -619,-859 -108,-218 -352,-830 -358,-1085 185,461 462,836 883,1012 589,246 1031,23 1484,-189 -12,274 -359,458 -613,539zm454 -4198c251,-71 397,-173 718,-158 357,17 424,138 615,281 275,205 431,911 413,1372 -16,424 -199,1125 -402,1382 -143,181 -224,351 -397,485 -115,89 -399,289 -578,228 -55,-19 -26,-10 -45,-23 48,-88 195,-205 274,-287 341,-352 429,-785 257,-1263 -250,-696 -1104,-938 -1340,-831 79,38 200,54 437,173 511,256 587,779 499,1343 -125,810 -907,1161 -1445,998 -231,-70 -598,-365 -726,-527 -194,-246 -219,-318 -346,-578l-357 -587c-546,-760 -767,-524 -1110,-784 164,10 335,68 473,127 228,98 617,258 772,419l317 298c-116,-346 -495,-716 -810,-914 -172,-109 -372,-206 -597,-265 -306,-80 -411,-89 -706,10 20,105 112,259 154,379 48,139 75,284 134,405 187,-20 193,4 353,33 -123,-160 -302,-153 -358,-247 300,-83 655,233 865,395 143,110 132,64 236,216 111,162 207,392 269,612 146,513 283,1839 462,2187 56,108 275,467 347,535 60,58 170,135 250,181l212 121c56,26 36,-10 63,32 -12,-8 -366,-119 -442,-149 -369,-146 -682,-723 -814,-1095 -122,-345 -163,-639 -244,-1009 -67,-307 -82,-816 -254,-1023 2,232 70,643 -89,904 -30,50 -9,22 -41,52 23,-233 87,-250 18,-510 -98,-368 -83,-484 -364,-784 -91,-97 -218,-166 -409,-167l124 513c37,116 14,64 109,118 144,82 301,286 357,504 101,395 -27,696 -261,976 -94,113 -135,117 -171,295 324,-108 629,-551 786,-722 3,96 -41,182 -63,281 -134,613 47,1605 344,2044 366,543 917,967 1857,997 -40,-28 -360,-184 -553,-310 -546,-358 -920,-769 -1135,-1478 113,21 122,165 248,374 206,345 662,722 1064,844 442,133 1190,15 1626,-148 164,-61 293,-145 423,-196 -439,51 -424,182 -1162,140 -286,-16 -541,-72 -766,-225 -71,-48 -163,-75 -200,-154 780,111 889,206 1777,-27 461,-121 657,-247 991,-508l258 -231c-559,266 -800,389 -1513,447 -337,28 -595,21 -900,-61 -253,-68 -563,-214 -633,-381 117,41 290,204 537,271 507,138 863,79 1353,-82 289,-95 773,-387 969,-632 52,-65 129,-154 180,-210 1038,-1119 639,-2811 30,-3969 -178,-340 -435,-651 -821,-781 -446,-150 -979,-12 -1119,342z"/>
   <path class="fil2" d="M19291 22427c230,-262 222,-173 446,-343l440 -341c247,-212 521,-703 843,-714 -326,-68 -482,-89 -766,-222 -246,-115 -691,-406 -865,-613l-230 -263c-63,-78 -154,-199 -204,-288 -53,-94 -113,-270 -162,-335 -45,83 -71,223 -108,327 -110,311 -250,603 -402,890 -147,277 -589,747 -563,1167 13,210 127,490 206,662 278,604 297,685 1003,728 129,8 218,-50 340,-69 77,-12 125,-2 198,-12 57,-8 106,-28 171,-38 -59,92 -161,95 -292,128 9,118 60,239 75,401 65,710 16,1265 -555,1720 -283,226 -85,382 -199,664 -82,204 -140,122 -199,273l-255 669c-191,476 -345,496 476,581 502,52 1092,-318 1119,-917 4,-97 -20,-62 -74,-130 -130,-162 -25,-506 128,-679 249,-282 42,-368 67,-720 17,-239 191,-900 268,-1099l271 -631c179,-426 292,-425 327,-598 49,-245 -129,-469 -261,-619 -107,12 -232,47 -326,96 -97,51 -220,32 -348,44 -120,11 -187,90 -278,151 -116,77 -174,70 -292,128z"/>
   <path class="fil2" d="M15728 7410c4,-344 172,-625 273,-905 -276,145 -587,909 -605,1272 -9,192 67,351 142,488 36,-466 327,-1000 647,-1308 333,-321 876,-579 1376,-570 -215,122 -678,55 -991,565 -60,98 -173,244 -207,331 106,-37 204,-107 343,-153 478,-158 805,-201 1252,-21 -352,-15 -276,-195 -991,159 -197,98 -466,241 -577,427 92,-34 167,-99 262,-147 88,-45 211,-95 306,-124 239,-73 476,-113 740,-90 364,31 390,5 659,179 518,335 911,809 1188,1358 166,329 375,910 344,1344 -45,-218 -225,-734 -335,-875 38,364 244,1089 116,1431 -16,-34 -70,-544 -89,-640 -40,-197 -85,-418 -138,-601 -95,-323 -377,-807 -601,-897 56,231 185,428 243,658 112,443 129,1111 -107,1528 -29,51 -58,89 -88,138 -95,160 -244,264 -306,372 335,-29 535,-289 664,-568 179,-386 61,-719 86,-1083 106,107 117,315 120,502 4,278 -57,344 -92,575 337,280 412,607 401,1068 -8,322 -180,543 -441,654 -107,45 -210,46 -333,41 4,4 10,4 12,11 34,111 874,157 1044,-373 196,-607 -36,-935 -76,-1394l56 73c2,4 24,71 26,76 150,455 555,1137 1066,1195 292,33 436,-131 581,-237 -149,434 -742,423 -1120,281 -166,-63 -219,-149 -353,-210 -10,195 38,324 97,485 109,299 358,416 613,579 184,118 215,119 464,129 -79,89 -283,104 -395,120 -221,32 -253,26 -455,-26 33,160 77,268 170,361 115,116 232,147 347,20 -114,-94 -118,-80 -186,-227 338,-11 409,61 622,-160 136,-141 264,-198 306,-483 -188,90 -449,354 -832,141 -203,-113 -442,-396 -493,-631 166,40 189,138 378,156 176,17 337,0 491,-50 564,-183 848,-802 529,-1304 -181,-285 -495,-220 -595,117 165,-48 248,-87 366,29 83,82 145,203 112,377 -28,150 -64,238 -184,291 -107,48 -316,70 -449,41 -422,-92 -568,-576 -676,-784 -186,-357 -214,-780 -273,-1181 -57,-382 -46,-426 -228,-762 -196,-363 -422,-714 -687,-1016 -54,-61 -77,-60 -128,-119 198,28 687,459 803,572 249,243 398,511 586,800 18,-524 -311,-1229 -652,-1597 -73,-78 -119,-114 -193,-176 -339,-285 -638,-631 -1161,-752 -114,-26 -179,3 -304,-21 -786,-145 -576,28 -972,71 105,-187 348,-280 541,-348 348,-123 434,-53 778,-59 -95,-87 -258,-121 -381,-141 -580,-95 -1243,-140 -1735,178 -235,152 -537,395 -620,672 -32,106 -19,142 -107,170z"/>
   <path class="fil2" d="M8316 7435c-29,-82 -101,-176 -146,-243l-411 -678c97,8 417,400 524,482 437,335 696,569 1208,845 171,92 526,300 697,342 -215,-135 -949,-715 -1123,-880l-365 -374c-44,-32 -125,-59 -183,-85 -466,-213 -1140,-667 -1486,-1038 -257,-275 -549,-460 -780,-739 -90,-108 -399,-427 -441,-565l502 525c365,369 1524,1231 1903,1299 -64,-147 -268,-314 -418,-649 -120,-267 -59,-154 -219,-315 -104,-105 -153,-164 -269,-265l-1397 -1231c-101,-90 -197,-163 -289,-245 -216,-193 -792,-868 -983,-1131 -131,-181 -326,-403 -436,-618 26,293 485,1451 616,1771 243,592 497,1113 810,1613 164,262 344,472 519,692 440,555 1463,1404 2165,1487z"/>
   <path class="fil2" d="M25141 7338c251,-138 220,-148 557,-312 198,-96 392,-212 586,-297 271,-118 1002,-460 1261,-514 -25,31 -3,12 -46,44l-365 211c-137,85 -264,173 -398,259l-1233 758c-132,109 -241,209 -350,328 -277,303 -464,434 -486,841 150,-76 222,-314 763,-606 97,-52 136,-36 232,-96 492,-311 801,-317 1238,-487 747,-290 1157,-476 1784,-986 136,-111 256,-219 369,-329 123,-120 215,-221 331,-347 119,-130 222,-227 334,-364 206,-254 1010,-1286 1177,-1580 -298,306 -867,708 -1317,968 -516,298 -1003,504 -1595,723 -354,131 -1284,528 -1623,696 -318,158 -810,425 -1014,711 -38,53 -188,330 -204,378z"/>
   <path class="fil2" d="M31147 4432c-18,225 -56,354 -99,554 217,-64 775,-452 896,-489 -156,128 -315,233 -489,364 -84,63 -172,120 -255,176 -81,55 -206,122 -250,201 -146,262 -252,677 -355,959 -40,109 -102,229 -128,339 248,-68 566,-311 763,-484 216,-189 480,-341 712,-519 977,-752 1159,-983 1837,-1878 178,-235 359,-450 539,-693 217,-294 781,-1235 916,-1566 -122,72 -315,323 -445,437 -161,141 -307,268 -479,403 -329,258 -683,504 -1023,763 -705,537 -765,622 -1560,1108 -161,99 -402,243 -580,326z"/>
   <path class="fil2" d="M29801 7587l744 -311c53,-29 63,-40 97,-87l80 -112 -20 124c482,-187 940,-463 1343,-687l-531 418c-184,137 -374,254 -583,382 -443,270 -281,47 -458,508 -92,239 -282,575 -310,653l851 -399c1013,-523 1967,-1468 2684,-2345 330,-403 806,-991 1048,-1457 140,-270 305,-558 379,-888 -84,84 -177,238 -259,331 -468,526 -914,1066 -1482,1494 -759,571 -1400,871 -2282,1289 -149,70 -247,126 -412,183 -76,26 -153,47 -223,64 -130,33 -119,20 -175,133 -148,301 -315,496 -489,709z"/>
   <path class="fil2" d="M22344 14878c60,118 19,25 0,63l-433 -2c-142,-8 -109,-64 -135,20 96,34 468,520 1345,621 431,50 1346,-78 1683,-245 -428,-83 -707,-127 -1100,-276 -169,-64 -540,-231 -671,-355l-184 -186c291,27 794,293 1752,306 340,5 629,-12 950,-85 195,-44 639,-160 771,-248 -427,-21 -588,-7 -970,-159 -286,-114 -854,-386 -1119,-563 -78,-53 -707,-280 -822,-305 -135,-30 -409,-57 -502,-89 -50,91 -117,114 -175,191 676,233 1164,653 1823,919 -528,7 -1865,-734 -2144,-661 0,0 -588,349 -599,359l344 267c163,140 149,144 349,287l764 494c-336,-32 -693,-265 -929,-351z"/>
   <path class="fil2" d="M13698 11301c-54,-28 -116,-114 -175,-163 -149,-125 -481,-390 -686,-327 58,116 477,369 751,837 419,716 876,1172 1416,1745 226,239 617,575 935,674 142,-89 492,-351 547,-460 -142,-90 -220,-102 -447,-264l-428 -318c-237,74 -337,98 -477,-90 -105,-142 -218,-166 -336,-341 -116,-171 -341,-221 -330,-649 5,-178 32,-120 -50,-264 -475,-840 -875,-2603 -1608,-3749 -222,-347 -622,-833 -971,-1041 -120,-72 -305,-219 -409,-255 1022,942 1238,1392 1645,2734 182,601 155,675 414,1352 81,212 319,389 208,581z"/>
   <path class="fil1" d="M27512 21051c254,-81 601,-265 613,-539 -453,211 -895,435 -1484,189 -421,-176 -697,-552 -883,-1012 6,255 251,868 358,1085 188,380 365,624 619,859 234,217 573,415 1006,444 360,24 969,-120 1161,-253 44,-31 10,-2 41,-35 -227,-1 -676,5 -853,-89 943,-125 1602,-676 1813,-1621 168,-752 122,-2462 -354,-2902 179,542 276,305 338,1321 75,1241 -430,2188 -1643,2486 -101,25 -571,109 -683,86 -41,-8 -27,-4 -49,-18z"/>
   <path class="fil2" d="M9881 11283c-56,-104 -213,-218 -292,-297l-287 -345c225,79 356,284 662,422 245,110 502,226 758,330 427,174 1176,504 1718,435 -193,-19 -1114,-398 -1322,-503 -306,-154 -594,-333 -856,-539 -96,-76 -148,-135 -300,-172 -641,-159 -1391,-519 -1927,-865l-546 -339c-29,-30 -6,0 -31,-39 94,10 691,340 913,431 210,86 835,250 1081,254 -42,-67 -235,-256 -315,-342 -97,-105 -198,-231 -283,-374 -637,27 -1351,-199 -1872,-407 -272,-109 -515,-232 -754,-374l-695 -457c62,147 749,825 902,968 729,681 1293,1086 2187,1589 276,155 960,549 1259,622z"/>
   <path class="fil2" d="M8710 9124c-7,-88 -149,-347 -225,-399l-791 -482c-456,-299 -1455,-1042 -1648,-1556 121,87 201,199 288,309l306 309c459,415 1853,1128 2465,1237 -27,-64 -565,-746 -677,-974 -271,25 -412,-37 -657,-121 -738,-256 -1493,-745 -2091,-1214 -87,-68 -143,-124 -222,-188 -422,-342 -681,-626 -1006,-1075 86,372 906,1568 1204,1945 488,617 959,1083 1621,1560 187,135 1130,772 1432,648z"/>
   <path class="fil2" d="M29999 8704l-286 346c-21,23 -31,31 -50,52 -45,47 -27,17 -58,76 902,-125 1136,-412 1658,-591 -74,179 -764,504 -991,591 -150,58 -520,165 -555,245 -35,81 -56,211 -88,302 -39,109 -87,193 -122,296 170,-47 442,-194 599,-270 561,-274 1172,-623 1651,-977 413,-305 800,-639 1133,-1042 175,-211 428,-543 551,-773 -135,101 -219,189 -340,286 -348,279 -734,594 -1135,815 -473,261 -1321,634 -1967,643z"/>
   <path class="fil2" d="M29372 10271l-271 496c484,-15 798,-146 1082,-177 -203,130 -978,439 -1280,501 -197,41 -182,103 -442,297 -77,57 -126,101 -195,158 645,4 1818,-572 2393,-875 733,-386 1322,-843 1943,-1351l-743 293c-257,94 -508,192 -772,274 -455,142 -1207,365 -1713,384z"/>
   <path class="fil2" d="M12782 12931l-844 -289c-341,-128 -559,-259 -846,-281 -546,-41 -1355,-333 -1637,-622 106,39 200,92 316,134 299,109 836,265 1142,274 -60,-59 -592,-483 -638,-493 -420,-91 -423,-53 -920,-208 -390,-121 -878,-281 -1237,-465 -129,-66 -253,-152 -364,-204 148,135 320,262 484,392 907,717 1762,1321 2933,1563 441,91 1147,224 1612,199z"/>
   <path class="fil2" d="M13811 6959l1309 2377c61,111 133,312 260,355 143,49 398,-4 489,-96 80,-81 160,-311 72,-465l-1522 -1557c-128,-132 -490,-523 -608,-615z"/>
   <path class="fil2" d="M27650 11967l964 10c-252,125 -931,199 -1245,226 -289,25 -380,23 -646,99 -139,40 -499,104 -603,151 1252,101 2498,5 3560,-623 94,-55 39,-44 212,-136 151,-80 568,-340 645,-425 -214,54 -434,146 -680,203 -322,75 -1240,222 -1561,231 -392,11 -114,-41 -505,167l-106 61c-30,24 -14,8 -35,36z"/>
   <path class="fil2" d="M25892 11164c743,-14 2035,-445 2636,-836 79,-52 107,-87 204,-145 274,-162 899,-532 963,-792 -104,22 -468,118 -527,160 -891,636 -1172,808 -2250,1238l-1025 374z"/>
   <path class="fil2" d="M27581 7300c525,-50 1749,-745 2133,-1122 133,-130 460,-383 568,-530 -213,108 -460,257 -698,380 -420,218 -225,14 -664,424 -223,208 -675,517 -973,668 -125,64 -250,108 -367,180z"/>
   <path class="fil2" d="M29800 5553c215,-54 615,-250 826,-352 206,-100 419,-517 492,-736 -200,58 -681,429 -911,585l-408 503z"/>
   <path class="fil3" d="M10853 9995c-70,-74 -687,-394 -1052,-738 -169,-159 -225,-151 -528,-211 -111,-22 -200,-63 -300,-83 62,82 348,242 436,297 325,203 1131,672 1445,736z"/>
   <path class="fil2" d="M28776 8413l-9 76 65 -18c200,-53 522,-237 707,-334l492 -308c44,-39 83,-99 122,-127 -96,11 -268,81 -383,112 -218,58 -236,21 -386,149 -202,173 -392,292 -609,449z"/>
   <path class="fil2" d="M15858 8835c26,-44 31,-84 64,-131l473 -595c69,-73 168,-128 225,-211 -179,27 -479,196 -604,284 -78,55 -149,150 -167,278 -12,82 -42,331 10,376z"/>
   <path class="fil4" d="M16322 10363c22,-252 157,-468 290,-589 3,150 25,284 -50,391 -55,79 -150,164 -240,198zm-54 226c66,-20 58,-29 92,-92 115,-214 163,-141 285,-310 76,-105 52,-198 57,-337 4,-106 69,-223 38,-306 -60,28 -337,344 -372,407 -64,115 -206,480 -100,638z"/>
   <path class="fil1" d="M15619 12169l-6 -144c75,-43 142,-113 229,-124 12,59 3,115 36,158 157,-77 132,-474 -188,-303 -101,54 -363,303 -72,413z"/>
   <path class="fil2" d="M15467 8433c-63,-228 -74,-269 -193,-421l-276 -337c-92,273 29,317 150,442 80,82 237,264 319,317z"/>
   <path class="fil2" d="M16322 10363c91,-35 185,-119 240,-198 75,-108 53,-241 50,-391 -133,121 -268,337 -290,589z"/>
   <path class="fil3" d="M15068 15340c115,-4 240,-30 331,-77 96,-49 108,-162 116,-308 -56,26 -5,-6 -59,35l-388 349z"/>
   <path class="fil5" d="M14035 8901c298,-80 277,-90 632,-89l-60 -132c-233,-14 -441,115 -572,221z"/>
   <path class="fil4" d="M14658 12067c43,62 51,111 118,110l-18 -178c109,46 43,51 137,93 -8,-121 -45,-193 -79,-292 -131,16 -145,129 -159,268z"/>
   <path class="fil4" d="M15427 11746c154,-75 -2,-196 437,-239l60 -18c-147,-80 -169,-98 -336,0 -87,51 -218,153 -161,257z"/>
   <polygon class="fil6" points="14008,8354 14485,8471 14408,8329 "/>
   <path class="fil7" d="M28832 8472l-65 18 9 -76 -374 239c125,-40 342,-86 430,-180z"/>
   <path class="fil6" d="M15658 8664c62,37 62,59 135,100l-58 -311 -77 211z"/>
   <path class="fil8" d="M15467 8433c26,47 43,64 71,94 49,54 37,47 103,77 -59,-215 -82,-156 -173,-171z"/>
   <path class="fil9" d="M26435 23145c-33,-74 -145,-162 -212,-198 31,47 52,62 84,100 69,83 21,78 129,98z"/>
   <path class="fil10" d="M21237 13468l-183 1c63,55 120,106 183,-1z"/>
   <polygon class="fil1" points="31642,2769 31663,2769 31645,2745 "/>
   <polygon class="fil1" points="24704,15926 24704,15947 24728,15930 "/>
  </g>
 </g>
</svg>
