<svg xmlns="http://www.w3.org/2000/svg" viewBox="0 0 800 800" width="100%" height="100%" preserveAspectRatio="xMidYMid meet">
	<style>
		.border { fill: var(--color) }
		.book { fill: var(--color) }
		.bookmark { fill: var(--background) }
		.r { fill: var(--background) }
		.plus { fill: var(--color) }
	</style>
	<g class="layer">
		<path class="border" d="m401.8,663.5c-19.8,0 -34.2,-4.3 -42.7,-12.9c-3,-3 -4.8,-6.1 -6,-8.7l-209.4,-27.5c-38,-7.4 -55.4,-25.3 -55.4,-56.4l0,-348c0,-4.7 3.8,-8.3 8.3,-8.3s8.3,3.8 8.3,8.3l0,347.7c0,16.4 5,32.7 41.2,39.8l214.5,28.2c4.2,0.5 7.3,4.2 7.3,8.3c0.4,4 8,12.5 33.5,12.5c22.8,0 29.1,-7.8 29.2,-12.4c-0.3,-4.4 3,-8 7.3,-8.5l219,-28.3c12.5,-2.6 41.1,-11.6 41.1,-39.8l0,-347.5c0,-4.7 3.8,-8.3 8.3,-8.3c4.7,0 8.3,3.8 8.3,8.3l0,347.7c0,28.3 -20.5,49.3 -54.8,56.4c-0.3,0 -0.4,0.1 -0.7,0.1l-213.4,27.5c-1,2.9 -2.7,6.1 -5.7,9.3c-7.1,8.2 -20.2,12.5 -38.2,12.5z"/>

		<path class="book" d="m660.7,178.7c-27.9,0 -51,-1.2 -75.1,2c-1.6,-2 -4.4,-3.3 -8,-3.3l-157.4,0c-5,0 -9.1,2.7 -9.1,6.1l0,47.2c-5.2,2.6 -7.7,8 -10.6,9.5c-19.3,-14 -97.1,-61.6 -257.5,-61.6c-2.2,0 -4.3,0.9 -6,2.5s-2.5,3.7 -2.5,6l0,369.7c0,2.2 0.9,4.4 2.5,6c1.6,1.6 3.9,2.5 6,2.3c140,-2.5 251.8,54.5 253,55.1c1.2,0.7 2.5,0.9 3.8,0.9c2.1,0 4,-0.8 5.6,-2.1c0.7,-0.5 80,-56.8 254.9,-53.9c2.2,-0.1 4.4,-0.8 6,-2.5c1.6,-1.7 2.5,-3.8 2.5,-6l0,-369.5c0.3,-4.7 -3.4,-8.4 -8.1,-8.4z"/>

		<path class="bookmark" d="m572.3,175.7l-145.6,1.4l0,318.3c0,1.8 0.9,3.7 2.5,4.7s3.5,1.2 5.2,0.5l65.1,-27.4l65.1,27.4c0.7,0.3 1.4,0.4 2.2,0.4c1,0 2.2,-0.3 3.1,-0.9c0.9,-0.7 1.6,-1.4 2,-2.5l0.4,-321.9z"/>

		<path class="r" d="m226.6,488.5l19.3,0l1.2,-149.8l-20.4,0l0,-23l86.9,0c19.4,0 34.1,4.8 44.2,14.5c10,9.7 15.1,22 15.1,37.2c0,15.8 -4.4,28 -13.3,36.8c-8.9,8.6 -20.1,13.7 -33.4,15c5.1,0.1 9.4,2.1 13,5.7s7.6,9 11.9,16.2l21.3,36.1c2.6,4.2 5.3,7 8.1,8.7c2.7,1.7 5.9,2.6 9.3,2.6l7.3,0l0,23l-18.1,0c-9.1,0 -15.9,-1.2 -20.5,-3.5s-9.5,-8.1 -15,-17.2l-26.7,-45.5c-3.9,-6.9 -7.3,-11.5 -10.2,-13.7c-2.9,-2.2 -6.7,-3.4 -11.2,-3.4l-16.7,0l-0.8,60.4l21.7,0l0,23l-72.9,0l0,-23.1l-0.1,0zm75.4,-85c11.5,0 20.6,-2.9 27.5,-8.5c6.9,-5.7 10.3,-13.7 10.3,-24.1c0,-10.3 -3,-18.1 -9.1,-23.7c-6.1,-5.6 -14.9,-8.3 -26.2,-8.3l-26.1,0l-0.8,64.8l24.4,0l0,-0.2z"/>

		<path class="plus" d="m488.1,340.1l23.6,0l0,43.6l43.6,0l0,23.6l-43.6,0l0,43.6l-23.6,0l0,-43.6l-43.6,0l0,-23.6l43.6,0l0,-43.6z"/>
	</g>
</svg>