<?xml version="1.0" standalone="no"?>
<!DOCTYPE svg PUBLIC "-//W3C//DTD SVG 20010904//EN"
 "http://www.w3.org/TR/2001/REC-SVG-20010904/DTD/svg10.dtd">
<svg version="1.0" xmlns="http://www.w3.org/2000/svg"
 width="700.000000pt" height="700.000000pt" viewBox="0 0 700.000000 700.000000"
 preserveAspectRatio="xMidYMid meet">
<metadata>
Created by potrace 1.14, written by Peter Selinger 2001-2017
</metadata>
<g transform="translate(0.000000,700.000000) scale(0.100000,-0.100000)"
fill="#000000" stroke="none">
<path d="M3873 5453 l-143 -4 0 -1399 c0 -1398 0 -1400 21 -1421 14 -14 27
-18 42 -13 12 4 143 58 292 120 148 63 277 114 286 114 9 0 145 -54 303 -121
277 -116 288 -120 312 -105 l24 16 0 1410 0 1410 -497 -2 c-274 -1 -562 -4
-640 -5z m599 -1620 l3 -188 193 -3 192 -2 0 -100 0 -100 -192 -2 -193 -3 -3
-187 -2 -188 -100 0 -100 0 0 190 0 190 -190 0 -190 0 0 100 0 100 190 0 190
0 0 190 0 190 100 0 100 0 2 -187z"/>
<path d="M1982 4138 l3 -103 89 -3 89 -3 -6 -397 c-4 -218 -7 -511 -7 -649 l0
-253 -85 0 -85 0 0 -105 0 -105 320 0 320 0 0 105 0 105 -96 0 -96 0 6 31 c3
17 6 135 6 261 l0 230 104 -4 c87 -2 109 -7 133 -24 30 -22 87 -110 258 -401
118 -201 171 -265 231 -283 22 -7 101 -14 177 -17 l137 -6 0 107 0 106 -50 0
c-59 0 -106 18 -136 51 -12 13 -68 103 -124 199 -131 222 -182 294 -231 327
l-40 26 53 17 c183 57 287 180 307 365 27 238 -83 420 -299 497 -64 22 -75 23
-523 26 l-458 3 3 -103z m805 -123 c71 -21 126 -65 154 -122 20 -40 24 -63 24
-138 0 -105 -19 -151 -84 -206 -67 -58 -116 -71 -295 -77 l-159 -5 6 198 c4
109 7 236 7 282 l0 83 148 0 c102 0 164 -5 199 -15z"/>
</g>
</svg>
